<svg xmlns="http://www.w3.org/2000/svg" viewBox="0 0 452.19 113.05"><defs><style>.cls-1{fill:#fff;}</style></defs><title>img_garagework_logo_white_</title><g id="Capa_2" data-name="Capa 2"><g id="Capa_1-2" data-name="Capa 1"><rect class="cls-1" y="83.84" width="452.19" height="0.92"/><path class="cls-1" d="M106,95.73h3.26a4.47,4.47,0,0,1,3,.94,3.46,3.46,0,0,1,1.11,2.81,3.8,3.8,0,0,1-.33,1.63,3.37,3.37,0,0,1-.9,1.17,3.63,3.63,0,0,1-1.33.71,5.27,5.27,0,0,1-1.67.24h-1.81V109H106Zm1.31,6.37h.91a12.93,12.93,0,0,0,1.42-.08,3.47,3.47,0,0,0,1.23-.34,2.08,2.08,0,0,0,.85-.79,2.63,2.63,0,0,0,.32-1.41,2.38,2.38,0,0,0-2.61-2.62h-2.12Z"/><path class="cls-1" d="M115.59,102.22a4.76,4.76,0,0,1,.82-1.62,3.88,3.88,0,0,1,1.4-1.12,5.09,5.09,0,0,1,4,0,4,4,0,0,1,1.41,1.12,4.93,4.93,0,0,1,.81,1.62,6.86,6.86,0,0,1,0,3.81,4.93,4.93,0,0,1-.81,1.62,4,4,0,0,1-1.41,1.11,5.09,5.09,0,0,1-4,0,3.86,3.86,0,0,1-1.4-1.11,4.76,4.76,0,0,1-.82-1.62,7.11,7.11,0,0,1,0-3.81m1.25,3.48a4.07,4.07,0,0,0,.62,1.29,3,3,0,0,0,1,.86,3.2,3.2,0,0,0,2.75,0,2.87,2.87,0,0,0,1-.86,4.07,4.07,0,0,0,.62-1.29,5.8,5.8,0,0,0,.21-1.58,5.73,5.73,0,0,0-.21-1.57,4.07,4.07,0,0,0-.62-1.29,2.87,2.87,0,0,0-1-.86,3.2,3.2,0,0,0-2.75,0,3,3,0,0,0-1,.86,4.07,4.07,0,0,0-.62,1.29,5.73,5.73,0,0,0-.21,1.57,5.8,5.8,0,0,0,.21,1.58"/><polygon class="cls-1" points="137.26 108.96 135.81 108.96 133.18 100.6 133.14 100.6 130.51 108.96 129.07 108.96 125.95 99.29 127.27 99.29 129.81 107.65 129.84 107.65 132.53 99.29 133.97 99.29 136.53 107.65 136.57 107.65 139.24 99.29 140.44 99.29 137.26 108.96"/><path class="cls-1" d="M149.27,108.65a6.12,6.12,0,0,1-1.39.4,8,8,0,0,1-1.42.13,5,5,0,0,1-2-.37,3.56,3.56,0,0,1-1.37-1.07,4.35,4.35,0,0,1-.75-1.61,7.59,7.59,0,0,1-.24-2,6.91,6.91,0,0,1,.29-2,4.94,4.94,0,0,1,.83-1.6,3.82,3.82,0,0,1,1.28-1,3.77,3.77,0,0,1,1.68-.38,3.63,3.63,0,0,1,1.74.39,3.38,3.38,0,0,1,1.2,1,4.31,4.31,0,0,1,.68,1.52,7.31,7.31,0,0,1,.22,1.84v.6h-6.61a5,5,0,0,0,.21,1.46,3.45,3.45,0,0,0,.6,1.16,2.9,2.9,0,0,0,1,.79,3.1,3.1,0,0,0,1.37.29,3.7,3.7,0,0,0,.71-.07c.26,0,.52-.09.76-.15a6.38,6.38,0,0,0,.7-.23,3.38,3.38,0,0,0,.54-.27Zm-.59-5.21a5.71,5.71,0,0,0-.13-1.23,3.44,3.44,0,0,0-.43-1.08,2.16,2.16,0,0,0-.77-.76,2.13,2.13,0,0,0-1.13-.28,2.36,2.36,0,0,0-1.19.3,3.15,3.15,0,0,0-.89.78,3.7,3.7,0,0,0-.57,1.08,4.16,4.16,0,0,0-.19,1.19Z"/><path class="cls-1" d="M153,101.45v-.68c0-.19,0-.37,0-.53s0-.32,0-.47,0-.3,0-.48h1.2v1.86h0a7.16,7.16,0,0,1,.4-.78,2.94,2.94,0,0,1,.54-.67,2.25,2.25,0,0,1,.71-.47,2.05,2.05,0,0,1,.83-.17,3.75,3.75,0,0,1,.45,0,3.43,3.43,0,0,1,.38.08v1.25a2.75,2.75,0,0,0-.86-.12,1.84,1.84,0,0,0-1.19.37,2.43,2.43,0,0,0-.73.91,4.65,4.65,0,0,0-.38,1.26,8.83,8.83,0,0,0-.11,1.33V109H153Z"/><path class="cls-1" d="M166.16,108.65a6.28,6.28,0,0,1-1.39.4,8,8,0,0,1-1.41.13,5,5,0,0,1-2-.37,3.56,3.56,0,0,1-1.37-1.07,4.37,4.37,0,0,1-.76-1.61,8.52,8.52,0,0,1-.24-2,6.6,6.6,0,0,1,.3-2,4.75,4.75,0,0,1,.83-1.6,3.76,3.76,0,0,1,1.29-1,4,4,0,0,1,3.41,0,3.38,3.38,0,0,1,1.2,1,4.31,4.31,0,0,1,.68,1.52,7.79,7.79,0,0,1,.22,1.84v.6h-6.61a5,5,0,0,0,.2,1.46,3.66,3.66,0,0,0,.61,1.16,2.9,2.9,0,0,0,1,.79,3.1,3.1,0,0,0,1.37.29,3.78,3.78,0,0,0,.71-.07c.26,0,.51-.09.76-.15a7.17,7.17,0,0,0,.7-.23,3.38,3.38,0,0,0,.54-.27Zm-.59-5.21a5.71,5.71,0,0,0-.13-1.23,3.44,3.44,0,0,0-.43-1.08,2.16,2.16,0,0,0-.77-.76,2.13,2.13,0,0,0-1.13-.28,2.36,2.36,0,0,0-1.19.3,3.15,3.15,0,0,0-.89.78,3.7,3.7,0,0,0-.57,1.08,3.84,3.84,0,0,0-.19,1.19Z"/><path class="cls-1" d="M177.53,109h-1.19v-1.54h0a3.17,3.17,0,0,1-1.23,1.34,3.55,3.55,0,0,1-1.78.42,3.86,3.86,0,0,1-1.75-.38,3.65,3.65,0,0,1-1.24-1.07,4.78,4.78,0,0,1-.75-1.61,7.88,7.88,0,0,1-.25-2,9.06,9.06,0,0,1,.22-2,4.5,4.5,0,0,1,.7-1.6,3.53,3.53,0,0,1,1.24-1.06,4.12,4.12,0,0,1,1.83-.38,3.22,3.22,0,0,1,1.24.23,3.76,3.76,0,0,1,.91.53,3.39,3.39,0,0,1,.59.62,2.29,2.29,0,0,1,.27.48h0V94.74h1.19Zm-6.8-3.42a4.09,4.09,0,0,0,.46,1.3,2.76,2.76,0,0,0,.88,1,2.43,2.43,0,0,0,1.4.37,2.26,2.26,0,0,0,1.35-.38,2.83,2.83,0,0,0,.88-1,4.47,4.47,0,0,0,.48-1.31,6.1,6.1,0,0,0,.16-1.38,6,6,0,0,0-.16-1.37,4.47,4.47,0,0,0-.48-1.31,2.86,2.86,0,0,0-.88-1,2.33,2.33,0,0,0-1.35-.37,2.43,2.43,0,0,0-1.4.37,2.73,2.73,0,0,0-.88.94,4.18,4.18,0,0,0-.46,1.3,9.84,9.84,0,0,0-.12,1.42,9.72,9.72,0,0,0,.12,1.42"/><path class="cls-1" d="M187,94.74h1.19v6.18h0a2,2,0,0,1,.28-.48,3,3,0,0,1,.58-.62,3.69,3.69,0,0,1,.9-.53,3.22,3.22,0,0,1,1.26-.23,4,4,0,0,1,1.81.38,3.36,3.36,0,0,1,1.24,1.06,4.17,4.17,0,0,1,.7,1.6,8.49,8.49,0,0,1,.23,2,7.88,7.88,0,0,1-.25,2,4.83,4.83,0,0,1-.75,1.6A3.6,3.6,0,0,1,193,108.8a3.86,3.86,0,0,1-1.73.38,3.46,3.46,0,0,1-1.79-.42,3.17,3.17,0,0,1-1.23-1.34h0V109H187Zm6.79,8a3.93,3.93,0,0,0-.45-1.3,2.94,2.94,0,0,0-.88-.94,2.47,2.47,0,0,0-1.41-.37,2.36,2.36,0,0,0-1.36.37,2.86,2.86,0,0,0-.88,1,4.77,4.77,0,0,0-.48,1.31,7.41,7.41,0,0,0-.14,1.37,6.69,6.69,0,0,0,.15,1.38,5.14,5.14,0,0,0,.49,1.31,2.73,2.73,0,0,0,.88,1,2.27,2.27,0,0,0,1.34.38,2.47,2.47,0,0,0,1.41-.37,3,3,0,0,0,.88-1,3.85,3.85,0,0,0,.45-1.3,8.52,8.52,0,0,0,.13-1.42,8.62,8.62,0,0,0-.13-1.42"/><path class="cls-1" d="M201.26,110.39a10.15,10.15,0,0,1-.39,1,3.79,3.79,0,0,1-.52.85,2.7,2.7,0,0,1-.68.59,1.62,1.62,0,0,1-.89.23,5.68,5.68,0,0,1-1.29-.15l.12-1,.36.1a2.47,2.47,0,0,0,.52,0,1.21,1.21,0,0,0,1.11-.58,7.16,7.16,0,0,0,.64-1.52l.24-.86-3.43-9.78h1.31l2.69,8.06h0l2.78-8.06h1.26Z"/><path class="cls-1" d="M223.13,104.34a5.32,5.32,0,0,1-.47,2.4,4.18,4.18,0,0,1-1.19,1.49,4.3,4.3,0,0,1-1.57.75,6.48,6.48,0,0,1-1.56.2,6.56,6.56,0,0,1-1.57-.2,4.33,4.33,0,0,1-1.56-.75,4.07,4.07,0,0,1-1.19-1.49,5.31,5.31,0,0,1-.48-2.4V95.73h1.31v8.61a5,5,0,0,0,.22,1.49,3.06,3.06,0,0,0,.67,1.18,2.94,2.94,0,0,0,1.09.76,4.21,4.21,0,0,0,3,0A3.06,3.06,0,0,0,221,107a3.32,3.32,0,0,0,.66-1.18,5,5,0,0,0,.22-1.49V95.73h1.3Z"/><path class="cls-1" d="M226.87,101.56c0-.36,0-.73,0-1.11s0-.77-.07-1.16H228V101h0c.1-.22.23-.44.37-.68a3,3,0,0,1,1.47-1.1,4,4,0,0,1,1.29-.18,3.63,3.63,0,0,1,1.51.29,2.76,2.76,0,0,1,1,.77,3.11,3.11,0,0,1,.58,1.18,5.36,5.36,0,0,1,.18,1.48V109h-1.19v-5.88a4,4,0,0,0-.53-2.18,2,2,0,0,0-1.76-.81,2.6,2.6,0,0,0-1.37.32,2.51,2.51,0,0,0-.88.83,3.63,3.63,0,0,0-.48,1.14,5.8,5.8,0,0,0-.14,1.23V109h-1.19Z"/><path class="cls-1" d="M239.32,97.09h-1.19V95.5h1.19Zm-1.19,2.2h1.19V109h-1.19Z"/><path class="cls-1" d="M249.35,100.58a6.68,6.68,0,0,0-1-.35,4.24,4.24,0,0,0-1-.14,3.79,3.79,0,0,0-1.55.3,3.15,3.15,0,0,0-1.15.84,3.48,3.48,0,0,0-.7,1.27,5.29,5.29,0,0,0-.24,1.62,5,5,0,0,0,.24,1.57,4,4,0,0,0,.69,1.28,3.28,3.28,0,0,0,1.11.87,3.33,3.33,0,0,0,1.46.32,5.72,5.72,0,0,0,1.11-.11,9.24,9.24,0,0,0,1.07-.32l.12,1.11a5.79,5.79,0,0,1-1.2.28c-.4,0-.83.06-1.28.06a4.64,4.64,0,0,1-2-.41,4,4,0,0,1-1.44-1.1,4.85,4.85,0,0,1-.86-1.62,6.53,6.53,0,0,1-.28-1.93,5.82,5.82,0,0,1,.33-2,4.61,4.61,0,0,1,1-1.6,4.36,4.36,0,0,1,1.51-1,5.15,5.15,0,0,1,2-.37,6.16,6.16,0,0,1,1.47.15c.4.09.68.17.86.23Z"/><path class="cls-1" d="M251.71,102.22a4.76,4.76,0,0,1,.82-1.62,4,4,0,0,1,1.4-1.12,5.12,5.12,0,0,1,4.06,0,4.06,4.06,0,0,1,1.4,1.12,4.57,4.57,0,0,1,.81,1.62,6.86,6.86,0,0,1,0,3.81,4.57,4.57,0,0,1-.81,1.62,4,4,0,0,1-1.4,1.11,5.12,5.12,0,0,1-4.06,0,4,4,0,0,1-1.4-1.11,4.76,4.76,0,0,1-.82-1.62,7.11,7.11,0,0,1,0-3.81M253,105.7a4,4,0,0,0,.61,1.29,3.09,3.09,0,0,0,1,.86,3.18,3.18,0,0,0,2.74,0,3,3,0,0,0,1-.86,4,4,0,0,0,.61-1.29,5.8,5.8,0,0,0,.21-1.58,5.73,5.73,0,0,0-.21-1.57,4,4,0,0,0-.61-1.29,3,3,0,0,0-1-.86,3.18,3.18,0,0,0-2.74,0,3.09,3.09,0,0,0-1,.86,4,4,0,0,0-.61,1.29,5.73,5.73,0,0,0-.21,1.57,5.8,5.8,0,0,0,.21,1.58"/><path class="cls-1" d="M275.12,109v-6.43a4.22,4.22,0,0,0-.1-1,2.29,2.29,0,0,0-.34-.78,1.71,1.71,0,0,0-.64-.51,2.4,2.4,0,0,0-1.92,0,2.19,2.19,0,0,0-.83.64,3,3,0,0,0-.59,1.1,4.92,4.92,0,0,0-.22,1.57V109h-1.19v-6.43a4.21,4.21,0,0,0-.11-1,2.29,2.29,0,0,0-.34-.78,1.63,1.63,0,0,0-.64-.51,2.13,2.13,0,0,0-1-.19,2.16,2.16,0,0,0-1,.21,2.19,2.19,0,0,0-.83.64,3,3,0,0,0-.59,1.1,4.92,4.92,0,0,0-.22,1.57V109h-1.19v-7.4c0-.36,0-.73,0-1.11s0-.77-.07-1.16h1.16v1.63l0,0a6.56,6.56,0,0,1,.33-.57,2.56,2.56,0,0,1,.54-.62,3.27,3.27,0,0,1,.85-.49,3.64,3.64,0,0,1,1.29-.2,3.36,3.36,0,0,1,.72.09,2.65,2.65,0,0,1,.77.31,2.19,2.19,0,0,1,.66.63,2.38,2.38,0,0,1,.41,1h0a3.15,3.15,0,0,1,1.13-1.45,3.24,3.24,0,0,1,2-.6,3.31,3.31,0,0,1,1.3.25,2.76,2.76,0,0,1,1,.67,2.88,2.88,0,0,1,.59,1,4.21,4.21,0,0,1,.2,1.3V109Z"/><path class="cls-1" d="M286.44,108.65a6.35,6.35,0,0,1-1.38.4,8.25,8.25,0,0,1-1.43.13,5.06,5.06,0,0,1-2-.37,3.61,3.61,0,0,1-1.36-1.07,4.53,4.53,0,0,1-.76-1.61,8.53,8.53,0,0,1-.23-2,6.91,6.91,0,0,1,.29-2,4.58,4.58,0,0,1,.83-1.6,3.82,3.82,0,0,1,1.28-1,3.76,3.76,0,0,1,1.67-.38,3.72,3.72,0,0,1,1.76.39,3.35,3.35,0,0,1,1.19,1,4.49,4.49,0,0,1,.68,1.52,7.31,7.31,0,0,1,.22,1.84v.6h-6.61a4.65,4.65,0,0,0,.21,1.46,3.28,3.28,0,0,0,.6,1.16,2.9,2.9,0,0,0,1,.79,3.1,3.1,0,0,0,1.37.29,3.78,3.78,0,0,0,.71-.07c.26,0,.51-.09.76-.15a7.17,7.17,0,0,0,.7-.23,3.38,3.38,0,0,0,.54-.27Zm-.59-5.21a5.71,5.71,0,0,0-.13-1.23,3.68,3.68,0,0,0-.42-1.08,2.43,2.43,0,0,0-.77-.76,2.19,2.19,0,0,0-1.14-.28,2.34,2.34,0,0,0-1.19.3,3,3,0,0,0-.89.78,3.48,3.48,0,0,0-.57,1.08,3.84,3.84,0,0,0-.19,1.19Z"/><path class="cls-1" d="M290.15,101.45v-.68c0-.19,0-.37,0-.53s0-.32,0-.47,0-.3,0-.48h1.19v1.86h0a5.74,5.74,0,0,1,.4-.78,2.94,2.94,0,0,1,.54-.67,2.33,2.33,0,0,1,.7-.47,2.14,2.14,0,0,1,.84-.17,3.75,3.75,0,0,1,.45,0l.39.08v1.25a3,3,0,0,0-.87-.12,1.82,1.82,0,0,0-1.19.37,2.43,2.43,0,0,0-.73.91,4.65,4.65,0,0,0-.38,1.26,7.7,7.7,0,0,0-.11,1.33V109h-1.2Z"/><path class="cls-1" d="M312.37,102.93H309.3v-1.14h4.38v6.58a10.07,10.07,0,0,1-2,.63,11.62,11.62,0,0,1-2.09.18,7.4,7.4,0,0,1-2.8-.49,5.72,5.72,0,0,1-2.09-1.39,5.93,5.93,0,0,1-1.32-2.16,8,8,0,0,1-.46-2.8,7.73,7.73,0,0,1,.47-2.76A6,6,0,0,1,306.8,96a7.34,7.34,0,0,1,2.76-.5c.26,0,.54,0,.85,0s.64.06,1,.1.63.11.93.19a3.71,3.71,0,0,1,.8.3L313,97.34a4.78,4.78,0,0,0-1.64-.57,11.57,11.57,0,0,0-1.75-.14,5.79,5.79,0,0,0-2.28.43,4.62,4.62,0,0,0-1.68,1.2,5.14,5.14,0,0,0-1,1.81,6.88,6.88,0,0,0-.36,2.27,7.07,7.07,0,0,0,.35,2.3,4.81,4.81,0,0,0,1,1.81,4.5,4.5,0,0,0,1.67,1.17,6,6,0,0,0,2.31.43l.69,0c.26,0,.52,0,.78-.08s.51-.08.75-.14a2,2,0,0,0,.59-.24Z"/><path class="cls-1" d="M317.58,101.45v-.68c0-.19,0-.37,0-.53s0-.32,0-.47,0-.3,0-.48h1.19v1.86h0a5.8,5.8,0,0,1,.41-.78,3.2,3.2,0,0,1,.53-.67,2.37,2.37,0,0,1,.71-.47,2.1,2.1,0,0,1,.84-.17,3.75,3.75,0,0,1,.45,0l.38.08v1.25a2.86,2.86,0,0,0-.87-.12,1.81,1.81,0,0,0-1.18.37,2.34,2.34,0,0,0-.73.91,4.32,4.32,0,0,0-.38,1.26,7.7,7.7,0,0,0-.11,1.33V109h-1.2Z"/><path class="cls-1" d="M323.79,102.22a4.61,4.61,0,0,1,.83-1.62A3.93,3.93,0,0,1,326,99.48a5.12,5.12,0,0,1,4.06,0,3.88,3.88,0,0,1,1.4,1.12,4.57,4.57,0,0,1,.81,1.62,6.86,6.86,0,0,1,0,3.81,4.57,4.57,0,0,1-.81,1.62,3.86,3.86,0,0,1-1.4,1.11,5.12,5.12,0,0,1-4.06,0,3.91,3.91,0,0,1-1.39-1.11,4.61,4.61,0,0,1-.83-1.62,7.38,7.38,0,0,1,0-3.81m1.26,3.48a4,4,0,0,0,.61,1.29,3.09,3.09,0,0,0,1,.86,3.18,3.18,0,0,0,2.74,0,3,3,0,0,0,1-.86,4.07,4.07,0,0,0,.62-1.29,5.8,5.8,0,0,0,.21-1.58,5.73,5.73,0,0,0-.21-1.57,4.07,4.07,0,0,0-.62-1.29,3,3,0,0,0-1-.86,3.18,3.18,0,0,0-2.74,0,3.09,3.09,0,0,0-1,.86,4,4,0,0,0-.61,1.29,5.73,5.73,0,0,0-.21,1.57,5.8,5.8,0,0,0,.21,1.58"/><path class="cls-1" d="M343.07,106.68c0,.37,0,.74,0,1.12s0,.77.07,1.16H342v-1.73h0a6.47,6.47,0,0,1-.37.67,2.74,2.74,0,0,1-.59.64,3.18,3.18,0,0,1-.88.47,4.31,4.31,0,0,1-1.28.17,3.65,3.65,0,0,1-1.52-.28,2.75,2.75,0,0,1-1-.78,3.06,3.06,0,0,1-.58-1.17,5.83,5.83,0,0,1-.18-1.48V99.29h1.19v5.88a4,4,0,0,0,.53,2.18,2,2,0,0,0,1.77.81,2.71,2.71,0,0,0,1.36-.32,2.6,2.6,0,0,0,.88-.83,3.5,3.5,0,0,0,.48-1.14,5.88,5.88,0,0,0,.14-1.23V99.29h1.19Z"/><path class="cls-1" d="M346.68,99.29h1.19l-.07,1.76h0l.32-.53a2.87,2.87,0,0,1,.57-.66,3.38,3.38,0,0,1,.89-.56,3.16,3.16,0,0,1,1.31-.24,4.07,4.07,0,0,1,1.82.38A3.44,3.44,0,0,1,354,100.5a4.33,4.33,0,0,1,.7,1.6,8.51,8.51,0,0,1,.22,2,7.45,7.45,0,0,1-.25,2,4.47,4.47,0,0,1-.75,1.6,3.43,3.43,0,0,1-1.25,1.08,3.8,3.8,0,0,1-1.73.38,3.32,3.32,0,0,1-1.85-.46,3.18,3.18,0,0,1-1.17-1.41h0v5.63h-1.19Zm6.79,3.41a3.94,3.94,0,0,0-.46-1.3,2.73,2.73,0,0,0-.88-.94,2.43,2.43,0,0,0-1.4-.37,2.35,2.35,0,0,0-1.35.37,3,3,0,0,0-.88,1,4.77,4.77,0,0,0-.48,1.31,6.38,6.38,0,0,0,0,2.75,4.77,4.77,0,0,0,.48,1.31,2.93,2.93,0,0,0,.88,1,2.28,2.28,0,0,0,1.35.38,2.43,2.43,0,0,0,1.4-.37,2.76,2.76,0,0,0,.88-1,3.86,3.86,0,0,0,.46-1.3,8.51,8.51,0,0,0,.12-1.42,8.6,8.6,0,0,0-.12-1.42"/><path class="cls-1" d="M136.11,45.49c-.26-2.91-1.54-2.68-4.12-2.68h-7.06c-3.28,0-5.46-.23-6.56,1.84-.64,1.17-.67,9.31.1,10.45,1.13,1.67,3.21,1.48,4.52,1.48h9c.91,0,3,.19,3.82-1.18a4.29,4.29,0,0,0,.24-2.18H126V47.77h18.32v5.79c0,1.54.23,5.56-1.78,7.63-1.81,1.84-6.9,2-8,2H120.31c-2,0-5.89.3-8.34-2.24-2.27-2.38-2.27-5.83-2.27-8.61V46.76c0-2.31-.21-5.83,2.14-8.17s7-2.31,9.38-2.38h13.45c2,0,6.53.17,8.48,3.29.93,1.57.93,3.71.93,6Z"/><path class="cls-1" d="M164.8,63.17V61a6.29,6.29,0,0,1-5.39,2.18h-5.36c-2,0-5.09.2-6.53-2-1-1.54-1.1-5.69-.4-7.23.88-1.94,2.61-2.44,4.46-2.68,2.88-.4,9.94-.7,12.89,1.17,0-1.67.13-3.21-1-3.85a4.52,4.52,0,0,0-2.44-.33H156.1a3,3,0,0,0-1.21.2,1.66,1.66,0,0,0-.7,1.27h-6.84c.31-5.19,3.09-5.82,7.3-5.82h8c2,0,5.15-.27,7.26,2,1.85,1.88,1.65,4.39,1.65,6.76V63.17Zm-1.74-4.25a1.79,1.79,0,0,0,1.51-1.31,1.92,1.92,0,0,0-.7-2,5.3,5.3,0,0,0-2.55-.4h-4.49a5.23,5.23,0,0,0-2.54.4,1.89,1.89,0,0,0-.67,2,1.73,1.73,0,0,0,1.47,1.31,12.11,12.11,0,0,0,1.64.1h4.69a12,12,0,0,0,1.64-.1"/><path class="cls-1" d="M189.07,52.92c0-1.13,0-2.54-1.5-3.21a5.68,5.68,0,0,0-4.7.3c-1.6,1.14-1.4,3.75-1.4,5.83v7.33h-7V44.28h6.73v3.18A6,6,0,0,1,186.33,44c1.84-.19,5.86-.29,7.73,2.18,1.21,1.51,1,4.66,1,6.73Z"/><path class="cls-1" d="M214.18,63.17V61a6.29,6.29,0,0,1-5.39,2.18h-5.36c-2,0-5.08.2-6.52-2-1-1.54-1.11-5.69-.41-7.23.87-1.94,2.61-2.44,4.45-2.68,2.89-.4,10-.7,12.9,1.17,0-1.67.13-3.21-1-3.85a4.59,4.59,0,0,0-2.45-.33h-4.92a3.08,3.08,0,0,0-1.21.2,1.6,1.6,0,0,0-.7,1.27h-6.84c.31-5.19,3.09-5.82,7.31-5.82h8c2,0,5.15-.27,7.26,2,1.85,1.88,1.64,4.39,1.64,6.76V63.17Zm-1.73-4.25a1.8,1.8,0,0,0,1.5-1.31,1.9,1.9,0,0,0-.7-2,5.3,5.3,0,0,0-2.55-.4h-4.49a5.28,5.28,0,0,0-2.54.4,1.89,1.89,0,0,0-.67,2,1.73,1.73,0,0,0,1.47,1.31,12.17,12.17,0,0,0,1.65.1h4.68a12.32,12.32,0,0,0,1.65-.1"/><path class="cls-1" d="M242.3,44.28h7V59.59c0,2.87.23,5.22-1.95,7.39s-6.13,2.32-9.11,2.32h-6.9c-2.07,0-5.09.2-6.73-2.11a7.21,7.21,0,0,1-.83-3.52h7.13a1.47,1.47,0,0,0,.84,1.27,8.51,8.51,0,0,0,1.64.17h5.09a3.92,3.92,0,0,0,3.11-1.24c.77-.94.7-1.9.7-4-2.61,2.08-4.15,1.85-6.93,1.85h-2c-2.05,0-6.93.33-9-3.29-1.24-2.24-1.28-9.2,0-11.45,1.87-3.21,5.08-3,9.11-3h1.8c2.71,0,4.49-.27,7,2.64Zm0,7.51a2.49,2.49,0,0,0-2.48-2.65s-2-.1-3.38-.1c-1.54,0-3.45.1-3.45.1a2.47,2.47,0,0,0-2.48,2.65s-.06.63-.06,1.07.06,1,.06,1A2.47,2.47,0,0,0,233,56.54s1.81.1,3.32.1,3.51-.1,3.51-.1a2.49,2.49,0,0,0,2.48-2.64s0-.74,0-1.18,0-.93,0-.93"/><path class="cls-1" d="M258.81,55c0,1.44.06,3.21,1.23,3.85s7.37.5,8.41,0c.71-.26,1-.7,1-1.67h6.64c-.34,6.06-4.76,6.43-9.21,6.43h-3.82c-4.86,0-8,.4-10.25-3.52-1.17-2.07-1.33-10.74,0-12.92,2-3.41,6.23-3.21,7.6-3.21H268c1.41,0,4.43.23,6.3,2.21s1.74,5.19,1.74,7.66V55ZM260,48.7c-1.35.74-1.14,1.48-1.14,2.28h10.35c0-.94-.11-1.94-1.28-2.28-.84-.23-7.3-.33-7.93,0"/><polygon class="cls-1" points="290.44 36.21 296.2 55.84 303.07 36.21 310.6 36.21 317.4 55.8 323.09 36.21 331.06 36.21 322.36 63.17 313.08 63.17 306.69 45.49 300.39 63.17 291.15 63.17 282.61 36.21 290.44 36.21"/><path class="cls-1" d="M354.59,59.65a5.65,5.65,0,0,1-3.81,3.49,14.16,14.16,0,0,1-3.92.43h-9.51a14.05,14.05,0,0,1-3.92-.43,5.67,5.67,0,0,1-3.82-3.49,13.08,13.08,0,0,1-.6-4.21V52a12.83,12.83,0,0,1,.6-4.22,5.58,5.58,0,0,1,3.82-3.45,13,13,0,0,1,3.92-.43h9.51a13.07,13.07,0,0,1,3.92.43,5.57,5.57,0,0,1,3.81,3.45,13.1,13.1,0,0,1,.57,4.22v3.42a12.81,12.81,0,0,1-.57,4.21m-17-10.11a2.88,2.88,0,0,0-1.44,2.54c-.17,1.51-.3,4.29,1.07,5.43a4.54,4.54,0,0,0,2.58.67h4.65a4.83,4.83,0,0,0,2.58-.67c1.41-1.14,1.24-3.92,1.11-5.43a2.9,2.9,0,0,0-1.44-2.54,5.62,5.62,0,0,0-2.58-.4h-3.95a5.55,5.55,0,0,0-2.58.4"/><path class="cls-1" d="M372.44,52.92c0-1.13,0-2.54-1.51-3.21a5.65,5.65,0,0,0-4.69.3c-1.61,1.14-1.4,3.75-1.4,5.83v7.33h-7V44.28h6.73v3.18A6,6,0,0,1,369.69,44c1.84-.19,5.86-.29,7.74,2.18,1.2,1.51,1,4.66,1,6.73Z"/><polygon class="cls-1" points="386.7 36.21 386.7 50.38 388.04 50.38 394.43 44.28 403.48 44.28 394.27 53.06 404.71 63.17 395.77 63.17 388.14 55.53 386.7 55.53 386.7 63.17 379.7 63.17 379.7 36.21 386.7 36.21"/><path class="cls-1" d="M421.75,49.64a2,2,0,0,0-2-1.37h-5.29a9.1,9.1,0,0,0-1.7.13,1.68,1.68,0,0,0-1.08.5,1.18,1.18,0,0,0-.16,1.15c.2.49.8.59,1.34.63a9.72,9.72,0,0,0,1.41.07H421c2.59,0,6.4-.21,8.25,2.94.8,1.41.7,5.87,0,7.14-1.81,3-5.72,2.74-7.91,2.74h-8.9c-1.33,0-5.85-.27-7.43-2.58-.71-1-.8-1.87-.8-3.58h7.33a1.24,1.24,0,0,0,.47,1.14c.83.77,1.67.67,3.11.67h4.32c1,0,2.58-.1,3-.94a2.24,2.24,0,0,0,0-1.61c-.61-.93-1.68-.93-4.06-.93h-5.22c-3.22,0-6.53.3-8.17-2.78-.84-1.54-.94-5.06-.1-6.5,1.64-2.74,5.66-2.54,8-2.54h8.87c2.55,0,4.55.43,6,2,.8.84,1,2.21,1.11,3.75Z"/><rect class="cls-1" x="60.08" y="55.47" width="13.83" height="13.83"/><rect class="cls-1" x="46.25" y="41.65" width="13.82" height="13.82"/><rect class="cls-1" x="73.9" y="41.65" width="13.83" height="13.82"/><rect class="cls-1" x="87.73" y="27.82" width="13.83" height="13.83"/><rect class="cls-1" x="32.42" y="27.82" width="9.1" height="9.11"/><rect class="cls-1" x="62.44" y="27.82" width="9.1" height="9.11"/><rect class="cls-1" x="76.26" y="14.16" width="9.11" height="9.1"/><rect class="cls-1" x="19.78" y="15.18" width="7.09" height="7.08"/><rect class="cls-1" x="49.62" y="15.18" width="7.08" height="7.08"/><rect class="cls-1" x="63.45" width="7.08" height="7.08"/></g></g></svg>