<svg xmlns="http://www.w3.org/2000/svg" xmlns:xlink="http://www.w3.org/1999/xlink" viewBox="0 0 411.48 370.94"><defs><style>.cls-1{isolation:isolate;}.cls-2{fill:#7048a3;}.cls-3{fill:#dce6ff;}.cls-4{fill:url(#linear-gradient);}.cls-23,.cls-5{opacity:0.2;}.cls-6{fill:url(#linear-gradient-2);}.cls-7{fill:url(#linear-gradient-3);}.cls-10,.cls-13,.cls-8{opacity:0.1;}.cls-9{fill:#04263a;}.cls-10{fill:#02121c;}.cls-11{fill:#021828;}.cls-12{fill:#487fa0;}.cls-14{fill:#fff;}.cls-15,.cls-16{fill:#5a7aff;}.cls-16{font-size:6.76px;font-family:Montserrat-Medium, Montserrat Medium;font-weight:500;}.cls-17{fill:#002b66;}.cls-18{fill:#ff58d5;}.cls-19{fill:#010b11;}.cls-20,.cls-22{fill:#005898;}.cls-21{opacity:0.3;}.cls-22{mix-blend-mode:screen;}</style><linearGradient id="linear-gradient" x1="293.91" y1="225.75" x2="349.87" y2="225.75" gradientUnits="userSpaceOnUse"><stop offset="0" stop-color="#484ba3"/><stop offset="1" stop-color="#6468cc"/></linearGradient><linearGradient id="linear-gradient-2" x1="332.08" y1="213.17" x2="398.38" y2="213.17" xlink:href="#linear-gradient"/><linearGradient id="linear-gradient-3" x1="337.39" y1="322.25" x2="337.39" y2="68.59" xlink:href="#linear-gradient"/></defs><title>img_background_home</title><g class="cls-1"><g id="Capa_2" data-name="Capa 2"><g id="OBJECTS"><path class="cls-2" d="M33.41,353.63a1.37,1.37,0,0,1-1-.4,1.34,1.34,0,0,1-.39-1,1.23,1.23,0,0,1,0-.27c0-.08.05-.17.08-.26a1.55,1.55,0,0,1,.12-.22,1.73,1.73,0,0,1,.17-.21,1.93,1.93,0,0,1,.21-.17,1.24,1.24,0,0,1,.23-.12l.25-.08a1.57,1.57,0,0,1,.53,0l.25.08a1.67,1.67,0,0,1,.23.12c.07.06.15.11.21.17a1.73,1.73,0,0,1,.17.21.94.94,0,0,1,.12.22c0,.09.06.18.08.26a1.24,1.24,0,0,1,0,.27,1.35,1.35,0,0,1-.4,1A1.37,1.37,0,0,1,33.41,353.63Z"/><path class="cls-2" d="M330.35,350.8a1.34,1.34,0,0,1,.5-1.84h0a1.34,1.34,0,0,1,1.84.5h0a1.33,1.33,0,0,1-.5,1.83h0a1.26,1.26,0,0,1-.67.19h0A1.36,1.36,0,0,1,330.35,350.8ZM27.88,347.32h0a1.36,1.36,0,0,1,.35-1.88h0a1.35,1.35,0,0,1,1.88.36h0a1.35,1.35,0,0,1-.36,1.87h0a1.3,1.3,0,0,1-.75.23h0A1.34,1.34,0,0,1,27.88,347.32Zm308.67-.22a1.35,1.35,0,0,1,.41-1.86h0a1.33,1.33,0,0,1,1.86.4h0a1.35,1.35,0,0,1-.4,1.87h0a1.4,1.4,0,0,1-.73.21h0A1.34,1.34,0,0,1,336.55,347.1Zm6-4a1.36,1.36,0,0,1,.3-1.89h0a1.35,1.35,0,0,1,1.89.31h0a1.35,1.35,0,0,1-.31,1.88h0a1.34,1.34,0,0,1-.79.26h0A1.37,1.37,0,0,1,342.55,343.09ZM24.08,341a1.34,1.34,0,0,1,.57-1.81h0a1.34,1.34,0,0,1,1.83.56h0a1.35,1.35,0,0,1-.57,1.82h0a1.27,1.27,0,0,1-.63.15h0A1.36,1.36,0,0,1,24.08,341Zm324.25-2.23a1.34,1.34,0,0,1,.21-1.9h0a1.34,1.34,0,0,1,1.9.21h0a1.35,1.35,0,0,1-.21,1.89h0a1.3,1.3,0,0,1-.85.3h0A1.39,1.39,0,0,1,348.33,338.76ZM21,334.3h0a1.37,1.37,0,0,1,.77-1.76h0a1.35,1.35,0,0,1,1.74.77h0a1.34,1.34,0,0,1-.76,1.74h0a1.19,1.19,0,0,1-.49.1h0A1.35,1.35,0,0,1,21,334.3Zm332.86-.16a1.35,1.35,0,0,1,.11-1.9h0a1.34,1.34,0,0,1,1.91.11h0a1.33,1.33,0,0,1-.11,1.89h0a1.31,1.31,0,0,1-.9.35h0A1.35,1.35,0,0,1,353.88,334.14Zm5.31-4.9a1.36,1.36,0,0,1,0-1.91h0a1.35,1.35,0,0,1,1.91,0h0a1.37,1.37,0,0,1,0,1.92h0a1.34,1.34,0,0,1-1,.4h0A1.33,1.33,0,0,1,359.19,329.24ZM18.7,327.31a1.35,1.35,0,0,1,.95-1.66h0a1.35,1.35,0,0,1,1.66,1h0a1.35,1.35,0,0,1-.94,1.65h0a1.23,1.23,0,0,1-.36.06h0A1.37,1.37,0,0,1,18.7,327.31Zm345.55-3.22a1.34,1.34,0,0,1-.09-1.91h0a1.35,1.35,0,0,1,1.91-.08h0a1.35,1.35,0,0,1,.09,1.9h0a1.36,1.36,0,0,1-1,.44h0A1.35,1.35,0,0,1,364.25,324.09Zm-347.12-4h0a1.34,1.34,0,0,1,1.1-1.55h0a1.36,1.36,0,0,1,1.56,1.11h0a1.35,1.35,0,0,1-1.11,1.55h0l-.23,0h0A1.36,1.36,0,0,1,17.13,320.12ZM369,318.69a1.36,1.36,0,0,1-.17-1.91h0a1.34,1.34,0,0,1,1.89-.17h0a1.34,1.34,0,0,1,.18,1.9h0a1.31,1.31,0,0,1-1,.48h0A1.41,1.41,0,0,1,369,318.69ZM16.32,312.8a1.34,1.34,0,0,1,1.27-1.42h0A1.35,1.35,0,0,1,19,312.65h0a1.34,1.34,0,0,1-1.26,1.42h-.08A1.35,1.35,0,0,1,16.32,312.8Zm357.23.25a1.35,1.35,0,0,1-.27-1.89h0a1.35,1.35,0,0,1,1.89-.27h0a1.34,1.34,0,0,1,.27,1.89h0a1.34,1.34,0,0,1-1.08.54h0A1.36,1.36,0,0,1,373.55,313.05Zm4.24-5.84a1.36,1.36,0,0,1-.37-1.88h0a1.36,1.36,0,0,1,1.88-.37h0a1.36,1.36,0,0,1,.36,1.88h0a1.35,1.35,0,0,1-1.11.59h0A1.37,1.37,0,0,1,377.79,307.21Zm-360.24-.36a1.34,1.34,0,0,1-1.29-1.4h0a1.36,1.36,0,0,1,1.41-1.29h0A1.33,1.33,0,0,1,19,305.57h0a1.32,1.32,0,0,1-1.34,1.28h-.06Zm364.18-5.7a1.35,1.35,0,0,1-.46-1.85h0a1.36,1.36,0,0,1,1.86-.46h0a1.35,1.35,0,0,1,.45,1.85h0a1.35,1.35,0,0,1-1.16.66h0A1.37,1.37,0,0,1,381.73,301.15ZM18.12,299.66A1.36,1.36,0,0,1,17,298.12h0A1.36,1.36,0,0,1,18.52,297h0a1.36,1.36,0,0,1,1.14,1.54h0a1.36,1.36,0,0,1-1.33,1.14h-.21Zm367.25-4.75a1.34,1.34,0,0,1-.55-1.82h0a1.34,1.34,0,0,1,1.83-.55h0a1.35,1.35,0,0,1,.54,1.83h0a1.36,1.36,0,0,1-1.19.71h0A1.33,1.33,0,0,1,385.37,294.91ZM19.45,292.57a1.36,1.36,0,0,1-.95-1.66h0a1.34,1.34,0,0,1,1.65-1h0a1.35,1.35,0,0,1,1,1.65h0a1.37,1.37,0,0,1-1.31,1h0A2.21,2.21,0,0,1,19.45,292.57Zm369.24-4.06a1.36,1.36,0,0,1-.64-1.8h0a1.36,1.36,0,0,1,1.8-.65h0a1.36,1.36,0,0,1,.64,1.8h0a1.34,1.34,0,0,1-1.22.76h0A1.47,1.47,0,0,1,388.69,288.51ZM21.57,285.66a1.34,1.34,0,0,1-.75-1.75h0a1.35,1.35,0,0,1,1.75-.76h0a1.37,1.37,0,0,1,.76,1.76h0a1.36,1.36,0,0,1-1.26.85h0A1.31,1.31,0,0,1,21.57,285.66Zm370.12-3.73a1.35,1.35,0,0,1-.73-1.76h0a1.35,1.35,0,0,1,1.77-.73h0a1.37,1.37,0,0,1,.73,1.76h0a1.37,1.37,0,0,1-1.26.84h0A1.3,1.3,0,0,1,391.69,281.93ZM24.48,279.06a1.36,1.36,0,0,1-.54-1.84h0a1.35,1.35,0,0,1,1.83-.54h0a1.36,1.36,0,0,1,.55,1.83h0a1.38,1.38,0,0,1-1.2.71h0A1.35,1.35,0,0,1,24.48,279.06Zm369.87-3.84a1.34,1.34,0,0,1-.82-1.72h0a1.36,1.36,0,0,1,1.73-.82h0a1.33,1.33,0,0,1,.81,1.72h0a1.34,1.34,0,0,1-1.26.9h0A1.44,1.44,0,0,1,394.35,275.22Zm-366.24-2.4a1.35,1.35,0,0,1-.37-1.88h0a1.33,1.33,0,0,1,1.87-.36h0a1.35,1.35,0,0,1,.38,1.87h0a1.39,1.39,0,0,1-1.13.59h0A1.36,1.36,0,0,1,28.11,272.82Zm368.55-4.44a1.34,1.34,0,0,1-.9-1.68h0a1.33,1.33,0,0,1,1.67-.9h0a1.33,1.33,0,0,1,.91,1.67h0a1.33,1.33,0,0,1-1.29,1h0A1.31,1.31,0,0,1,396.66,268.38Zm-364.4-1.47A1.36,1.36,0,0,1,32,265h0a1.35,1.35,0,0,1,1.89-.23h0a1.34,1.34,0,0,1,.24,1.89h0a1.33,1.33,0,0,1-1.07.53h0A1.37,1.37,0,0,1,32.26,266.91Zm4.53-5.63a1.34,1.34,0,0,1-.15-1.9h0a1.33,1.33,0,0,1,1.89-.15h0a1.35,1.35,0,0,1,.16,1.9h0a1.36,1.36,0,0,1-1,.47h0A1.3,1.3,0,0,1,36.79,261.28Zm361.82.15a1.35,1.35,0,0,1-1-1.63h0a1.35,1.35,0,0,1,1.63-1h0a1.34,1.34,0,0,1,1,1.62h0a1.35,1.35,0,0,1-1.31,1h0A1.86,1.86,0,0,1,398.61,261.43Zm-357.1-5.6a1.37,1.37,0,0,1-.11-1.91h0a1.36,1.36,0,0,1,1.91-.11h0a1.34,1.34,0,0,1,.11,1.9h0a1.31,1.31,0,0,1-1,.46h0A1.42,1.42,0,0,1,41.51,255.83Zm358.69-1.44a1.36,1.36,0,0,1-1.08-1.58h0a1.35,1.35,0,0,1,1.57-1.08h0a1.35,1.35,0,0,1,1.08,1.58h0a1.34,1.34,0,0,1-1.32,1.11h0ZM46.33,250.44a1.35,1.35,0,0,1-.12-1.91h0a1.36,1.36,0,0,1,1.91-.12h0a1.35,1.35,0,0,1,.11,1.91h0a1.31,1.31,0,0,1-1,.46h0A1.36,1.36,0,0,1,46.33,250.44Zm355.07-3.18a1.34,1.34,0,0,1-1.16-1.51h0a1.34,1.34,0,0,1,1.51-1.16h0a1.34,1.34,0,0,1,1.16,1.51h0a1.34,1.34,0,0,1-1.33,1.17h-.18ZM51.09,245a1.34,1.34,0,0,1-.17-1.9h0a1.35,1.35,0,0,1,1.9-.16h0a1.36,1.36,0,0,1,.17,1.9h0a1.36,1.36,0,0,1-1,.48h0A1.28,1.28,0,0,1,51.09,245Zm351.12-4.91a1.33,1.33,0,0,1-1.24-1.45h0a1.34,1.34,0,0,1,1.44-1.24h0a1.36,1.36,0,0,1,1.25,1.45h0a1.36,1.36,0,0,1-1.34,1.24h-.11Zm-346.56-.68a1.34,1.34,0,0,1-.26-1.89h0a1.34,1.34,0,0,1,1.89-.26h0a1.35,1.35,0,0,1,.26,1.89h0a1.35,1.35,0,0,1-1.08.54h0A1.31,1.31,0,0,1,55.65,239.41Zm4.21-5.87a1.35,1.35,0,0,1-.41-1.86h0a1.36,1.36,0,0,1,1.87-.41h0a1.33,1.33,0,0,1,.4,1.86h0a1.32,1.32,0,0,1-1.13.63h0A1.38,1.38,0,0,1,59.86,233.54Zm342.77-.66a1.36,1.36,0,0,1-1.32-1.38h0a1.36,1.36,0,0,1,1.38-1.32h0a1.35,1.35,0,0,1,1.32,1.38h0a1.35,1.35,0,0,1-1.35,1.32h0Zm-339-5.52a1.35,1.35,0,0,1-.58-1.82h0a1.36,1.36,0,0,1,1.83-.58h0a1.36,1.36,0,0,1,.57,1.82h0a1.36,1.36,0,0,1-1.2.73h0A1.26,1.26,0,0,1,63.59,227.36Zm337.68-3h0a1.37,1.37,0,0,1,1.31-1.39h0a1.35,1.35,0,0,1,1.39,1.31h0a1.34,1.34,0,0,1-1.3,1.39h-.05A1.36,1.36,0,0,1,401.27,224.35ZM66.69,220.83a1.34,1.34,0,0,1-.79-1.73h0a1.35,1.35,0,0,1,1.74-.79h0a1.35,1.35,0,0,1,.79,1.74h0a1.37,1.37,0,0,1-1.27.88h0A1.1,1.1,0,0,1,66.69,220.83Zm334.18-3.62a1.34,1.34,0,0,1,1.23-1.45h0a1.35,1.35,0,0,1,1.46,1.23h0a1.35,1.35,0,0,1-1.23,1.46h-.12A1.34,1.34,0,0,1,400.87,217.21ZM68.94,214a1.35,1.35,0,0,1-1-1.61h0a1.35,1.35,0,0,1,1.6-1h0a1.35,1.35,0,0,1,1,1.6h0A1.36,1.36,0,0,1,69.23,214h0ZM400.1,210.1a1.34,1.34,0,0,1,1.15-1.51h0a1.34,1.34,0,0,1,1.52,1.15h0a1.35,1.35,0,0,1-1.16,1.52h-.18A1.34,1.34,0,0,1,400.1,210.1Zm-330-3.24a1.36,1.36,0,0,1-1.3-1.4h0a1.37,1.37,0,0,1,1.41-1.3h0a1.35,1.35,0,0,1,1.29,1.41h0a1.35,1.35,0,0,1-1.35,1.29h0ZM399,203.05a1.35,1.35,0,0,1,1.07-1.58h0a1.35,1.35,0,0,1,1.58,1.07h0a1.36,1.36,0,0,1-1.08,1.59h-.25A1.35,1.35,0,0,1,399,203.05ZM68.43,198.52A1.36,1.36,0,0,1,69.56,197h0a1.36,1.36,0,0,1,1.55,1.13h0A1.34,1.34,0,0,1,70,199.64h0l-.2,0h0A1.35,1.35,0,0,1,68.43,198.52Zm329-2.47a1.35,1.35,0,0,1,1-1.63h0a1.36,1.36,0,0,1,1.63,1h0a1.35,1.35,0,0,1-1,1.62h0a1.22,1.22,0,0,1-.32,0h0A1.34,1.34,0,0,1,397.47,196.05Zm-330.71-4.3A1.35,1.35,0,0,1,67.6,190h0a1.37,1.37,0,0,1,1.72.84h0a1.37,1.37,0,0,1-.85,1.72h0a1.61,1.61,0,0,1-.43.07h0A1.35,1.35,0,0,1,66.76,191.75Zm328.87-2.61h0a1.37,1.37,0,0,1,.92-1.68h0a1.34,1.34,0,0,1,1.67.91h0a1.34,1.34,0,0,1-.91,1.67h0a1.31,1.31,0,0,1-.38.06h0A1.36,1.36,0,0,1,395.63,189.14ZM64,185.3a1.36,1.36,0,0,1,.58-1.82h0a1.36,1.36,0,0,1,1.82.6h0a1.34,1.34,0,0,1-.58,1.81h0a1.25,1.25,0,0,1-.61.15h0A1.35,1.35,0,0,1,64,185.3Zm329.47-3a1.35,1.35,0,0,1,.83-1.72h0a1.35,1.35,0,0,1,1.72.83h0a1.36,1.36,0,0,1-.84,1.72h0a1.31,1.31,0,0,1-.44.07h0A1.35,1.35,0,0,1,393.46,182.32Zm-333-3.13a1.34,1.34,0,0,1,.39-1.86h0a1.34,1.34,0,0,1,1.87.4h0a1.34,1.34,0,0,1-.39,1.86h0a1.34,1.34,0,0,1-.74.21h0A1.34,1.34,0,0,1,60.42,179.19ZM391,175.61a1.36,1.36,0,0,1,.75-1.75h0a1.36,1.36,0,0,1,1.76.74h0a1.37,1.37,0,0,1-.75,1.77h0a1.45,1.45,0,0,1-.51.1h0A1.35,1.35,0,0,1,391,175.61ZM56.33,173.34a1.34,1.34,0,0,1,.27-1.88h0a1.34,1.34,0,0,1,1.89.28h0a1.32,1.32,0,0,1-.28,1.88h0a1.31,1.31,0,0,1-.8.27h0A1.33,1.33,0,0,1,56.33,173.34Zm331.79-4.29a1.34,1.34,0,0,1,.66-1.79h0a1.35,1.35,0,0,1,1.79.66h0a1.36,1.36,0,0,1-.66,1.79h0a1.46,1.46,0,0,1-.57.12h0A1.33,1.33,0,0,1,388.12,169.05ZM51.94,167.67h0a1.34,1.34,0,0,1,.23-1.89h0a1.34,1.34,0,0,1,1.89.21h0a1.36,1.36,0,0,1-.22,1.9h0a1.34,1.34,0,0,1-.84.29h0A1.36,1.36,0,0,1,51.94,167.67Zm333-5a1.34,1.34,0,0,1,.57-1.82h0a1.35,1.35,0,0,1,1.82.57h0a1.35,1.35,0,0,1-.57,1.82h0a1.39,1.39,0,0,1-.62.16h0A1.36,1.36,0,0,1,385,162.63ZM47.45,162h0a1.34,1.34,0,0,1,.23-1.89h0a1.35,1.35,0,0,1,1.89.22h0a1.35,1.35,0,0,1-.22,1.89h0a1.35,1.35,0,0,1-.84.3h0A1.36,1.36,0,0,1,47.45,162Zm334-5.63a1.34,1.34,0,0,1,.47-1.84h0a1.35,1.35,0,0,1,1.85.48h0a1.33,1.33,0,0,1-.48,1.84h0a1.3,1.3,0,0,1-.68.19h0A1.32,1.32,0,0,1,381.49,156.37ZM43,156.23a1.36,1.36,0,0,1,.29-1.89h0a1.36,1.36,0,0,1,1.89.29h0a1.35,1.35,0,0,1-.29,1.89h0a1.32,1.32,0,0,1-.8.26h0A1.35,1.35,0,0,1,43,156.23Zm334.68-5.93a1.34,1.34,0,0,1,.38-1.86h0a1.34,1.34,0,0,1,1.87.38h0a1.34,1.34,0,0,1-.39,1.87h0a1.31,1.31,0,0,1-.74.22h0A1.31,1.31,0,0,1,377.71,150.3Zm-338.82-.09a1.33,1.33,0,0,1,.41-1.86h0a1.33,1.33,0,0,1,1.86.41h0a1.34,1.34,0,0,1-.41,1.86h0a1.3,1.3,0,0,1-.72.21h0A1.33,1.33,0,0,1,38.89,150.21Zm334.73-5.78a1.36,1.36,0,0,1,.29-1.89h0a1.35,1.35,0,0,1,1.88.29h0a1.35,1.35,0,0,1-.29,1.89h0a1.29,1.29,0,0,1-.79.26h0A1.35,1.35,0,0,1,373.62,144.43Zm-338.4-.57A1.36,1.36,0,0,1,35.8,142h0a1.36,1.36,0,0,1,1.82.58h0a1.36,1.36,0,0,1-.58,1.82h0a1.38,1.38,0,0,1-.62.15h0A1.35,1.35,0,0,1,35.22,143.86Zm334-5.08a1.36,1.36,0,0,1,.19-1.9h0a1.36,1.36,0,0,1,1.9.19h0a1.34,1.34,0,0,1-.19,1.9h0a1.33,1.33,0,0,1-.85.31h0A1.35,1.35,0,0,1,369.24,138.78ZM32.11,137.22a1.35,1.35,0,0,1,.73-1.77h0a1.34,1.34,0,0,1,1.76.72h0a1.34,1.34,0,0,1-.73,1.77h0a1.3,1.3,0,0,1-.51.11h0A1.37,1.37,0,0,1,32.11,137.22Zm332.46-3.85h0a1.36,1.36,0,0,1,.09-1.91h0a1.36,1.36,0,0,1,1.91.09h0a1.36,1.36,0,0,1-.09,1.91h0a1.37,1.37,0,0,1-.91.35h0A1.36,1.36,0,0,1,364.57,133.37Zm-335-3a1.35,1.35,0,0,1,.87-1.7h0a1.36,1.36,0,0,1,1.7.88h0a1.37,1.37,0,0,1-.88,1.7h0a1.4,1.4,0,0,1-.41.06h0A1.33,1.33,0,0,1,29.57,130.33Zm330.05-2.12a1.35,1.35,0,0,1,0-1.91h0a1.35,1.35,0,0,1,1.91,0h0a1.33,1.33,0,0,1,0,1.9h0a1.33,1.33,0,0,1-.95.41h0A1.35,1.35,0,0,1,359.62,128.21Zm-332-4.94a1.35,1.35,0,0,1,1-1.62h0a1.34,1.34,0,0,1,1.62,1h0a1.35,1.35,0,0,1-1,1.62h0a1.05,1.05,0,0,1-.3,0h0A1.35,1.35,0,0,1,27.6,123.27Zm326.8,0a1.34,1.34,0,0,1-.11-1.9h0a1.36,1.36,0,0,1,1.91-.12h0a1.36,1.36,0,0,1,.11,1.91h0a1.36,1.36,0,0,1-1,.46h0A1.38,1.38,0,0,1,354.4,123.32ZM349,118.65a1.35,1.35,0,0,1-.17-1.9h0a1.34,1.34,0,0,1,1.9-.16h0a1.33,1.33,0,0,1,.17,1.89h0a1.35,1.35,0,0,1-1,.49h0A1.36,1.36,0,0,1,349,118.65ZM26.23,116.07a1.33,1.33,0,0,1,1.13-1.53h0a1.37,1.37,0,0,1,1.54,1.14h0a1.36,1.36,0,0,1-1.15,1.53h-.19A1.33,1.33,0,0,1,26.23,116.07ZM343.42,114h0a1.35,1.35,0,0,1-.14-1.91h0a1.35,1.35,0,0,1,1.9-.15h0a1.36,1.36,0,0,1,.15,1.91h0a1.36,1.36,0,0,1-1,.47h0A1.36,1.36,0,0,1,343.42,114Zm-318-5.21h0a1.35,1.35,0,0,1,1.26-1.43h0a1.35,1.35,0,0,1,1.43,1.26h0A1.34,1.34,0,0,1,26.87,110h-.09A1.34,1.34,0,0,1,25.44,108.78Zm312.53.36a1.36,1.36,0,0,1-.05-1.91h0a1.36,1.36,0,0,1,1.91-.07h0a1.37,1.37,0,0,1,.05,1.92h0a1.33,1.33,0,0,1-1,.42h0A1.4,1.4,0,0,1,338,109.14Zm-5.13-5.23a1.35,1.35,0,0,1,.1-1.91h0a1.35,1.35,0,0,1,1.9.11h0a1.35,1.35,0,0,1-.1,1.91h0a1.4,1.4,0,0,1-.9.34h0A1.35,1.35,0,0,1,332.84,103.91ZM26.59,102.83a1.36,1.36,0,0,1-1.33-1.37h0a1.36,1.36,0,0,1,1.38-1.33h0A1.34,1.34,0,0,1,28,101.51h0a1.34,1.34,0,0,1-1.35,1.32h0ZM328.26,98.1h0a1.33,1.33,0,0,1,.36-1.87h0a1.35,1.35,0,0,1,1.87.35h0a1.36,1.36,0,0,1-.36,1.88h0a1.34,1.34,0,0,1-.76.24h0A1.33,1.33,0,0,1,328.26,98.1ZM26.92,95.62a1.35,1.35,0,0,1-1.21-1.48h0a1.37,1.37,0,0,1,1.49-1.21h0a1.35,1.35,0,0,1,1.19,1.48h0a1.35,1.35,0,0,1-1.34,1.22h-.13Zm297.7-4h0a1.35,1.35,0,0,1,.69-1.78h0a1.36,1.36,0,0,1,1.79.69h0a1.36,1.36,0,0,1-.7,1.78h0a1.32,1.32,0,0,1-.54.12h0A1.37,1.37,0,0,1,324.62,91.6ZM27.86,88.46a1.35,1.35,0,0,1-1.05-1.59h0a1.36,1.36,0,0,1,1.59-1.06h0a1.38,1.38,0,0,1,1.06,1.6h0a1.37,1.37,0,0,1-1.33,1.07h0A1.23,1.23,0,0,1,27.86,88.46ZM138,84.6a1.35,1.35,0,0,1,1.29-1.41h0a1.33,1.33,0,0,1,1.4,1.28h0a1.34,1.34,0,0,1-1.28,1.41h-.06A1.34,1.34,0,0,1,138,84.6Zm184.4-.15h0a1.37,1.37,0,0,1,1.07-1.59h0A1.37,1.37,0,0,1,325,83.92h0A1.36,1.36,0,0,1,324,85.51h0a1.23,1.23,0,0,1-.27,0h0A1.37,1.37,0,0,1,322.35,84.45Zm-190.45,1a1.36,1.36,0,0,1-1.13-1.55h0a1.34,1.34,0,0,1,1.54-1.12h0a1.36,1.36,0,0,1,1.13,1.54h0a1.36,1.36,0,0,1-1.34,1.14h-.2Zm13.21-1.68a1.35,1.35,0,0,1,1-1.64h0a1.34,1.34,0,0,1,1.64,1h0a1.35,1.35,0,0,1-1,1.64h0a1.32,1.32,0,0,1-.34,0h0A1.36,1.36,0,0,1,145.11,83.79Zm-20.44-.08a1.34,1.34,0,0,1-.85-1.7h0a1.35,1.35,0,0,1,1.7-.87h0a1.35,1.35,0,0,1,.86,1.7h0a1.36,1.36,0,0,1-1.29.94h0A1.67,1.67,0,0,1,124.67,83.71ZM152,81.59a1.34,1.34,0,0,1,.66-1.79h0a1.34,1.34,0,0,1,1.79.67h0a1.36,1.36,0,0,1-.67,1.79h0a1.38,1.38,0,0,1-.56.12h0A1.33,1.33,0,0,1,152,81.59ZM29.55,81.44a1.35,1.35,0,0,1-.86-1.7h0a1.35,1.35,0,0,1,1.71-.86h0a1.35,1.35,0,0,1,.86,1.7h0a1.35,1.35,0,0,1-1.28.93h0A1.61,1.61,0,0,1,29.55,81.44ZM117.82,81a1.35,1.35,0,0,1-.64-1.8h0a1.34,1.34,0,0,1,1.79-.64h0a1.34,1.34,0,0,1,.64,1.8h0a1.34,1.34,0,0,1-1.22.77h0A1.44,1.44,0,0,1,117.82,81Zm40.57-2.69a1.35,1.35,0,0,1,.4-1.86h0a1.35,1.35,0,0,1,1.87.4h0a1.35,1.35,0,0,1-.4,1.87h0a1.4,1.4,0,0,1-.73.21h0A1.35,1.35,0,0,1,158.39,78.27ZM321.64,77A1.35,1.35,0,0,1,323,75.66h0A1.35,1.35,0,0,1,324.34,77h0A1.36,1.36,0,0,1,323,78.36h0A1.36,1.36,0,0,1,321.64,77Zm-210.31.53a1.34,1.34,0,0,1-.5-1.84h0a1.35,1.35,0,0,1,1.84-.5h0a1.36,1.36,0,0,1,.5,1.85h0a1.35,1.35,0,0,1-1.17.67h0A1.35,1.35,0,0,1,111.33,77.55ZM32.07,74.67a1.36,1.36,0,0,1-.64-1.8h0a1.35,1.35,0,0,1,1.8-.63h0A1.34,1.34,0,0,1,33.87,74h0a1.35,1.35,0,0,1-1.22.77h0A1.29,1.29,0,0,1,32.07,74.67Zm132.23-.55a1.34,1.34,0,0,1,.18-1.9h0a1.35,1.35,0,0,1,1.9.18h0a1.37,1.37,0,0,1-.17,1.9h0a1.41,1.41,0,0,1-.87.31h0A1.36,1.36,0,0,1,164.3,74.12Zm-59.19-.37h0a1.36,1.36,0,0,1-.41-1.87h0a1.34,1.34,0,0,1,1.87-.4h0a1.34,1.34,0,0,1,.4,1.86h0a1.32,1.32,0,0,1-1.13.62h0A1.29,1.29,0,0,1,105.11,73.75Zm218.17-2.6a1.36,1.36,0,0,1-1.18-1.5h0a1.36,1.36,0,0,1,1.51-1.18h0a1.34,1.34,0,0,1,1.17,1.5h0a1.34,1.34,0,0,1-1.33,1.19h-.17ZM99.05,69.76h0a1.34,1.34,0,0,1-.36-1.87h0a1.35,1.35,0,0,1,1.87-.37h0a1.35,1.35,0,0,1,.37,1.87h0a1.37,1.37,0,0,1-1.13.6h0A1.34,1.34,0,0,1,99.05,69.76Zm70.66-.41a1.36,1.36,0,0,1,0-1.92h0a1.34,1.34,0,0,1,1.9,0h0a1.35,1.35,0,0,1,0,1.91h0a1.35,1.35,0,0,1-1,.39h0A1.35,1.35,0,0,1,169.71,69.35Zm-134.23-1a1.35,1.35,0,0,1-.35-1.87h0A1.35,1.35,0,0,1,37,66.08h0A1.35,1.35,0,0,1,37.36,68h0a1.38,1.38,0,0,1-1.12.59h0A1.38,1.38,0,0,1,35.48,68.3Zm57.57-2.5a1.34,1.34,0,0,1-.41-1.86h0a1.35,1.35,0,0,1,1.87-.41h0a1.35,1.35,0,0,1,.41,1.86h0a1.36,1.36,0,0,1-1.14.62h0A1.31,1.31,0,0,1,93.05,65.8Zm81.63-1.7a1.34,1.34,0,0,1-.13-1.9h0a1.35,1.35,0,0,1,1.9-.12h0a1.35,1.35,0,0,1,.13,1.9h0a1.39,1.39,0,0,1-1,.46h0A1.29,1.29,0,0,1,174.68,64.1ZM324.32,64a1.34,1.34,0,0,1-1.09-1.56h0a1.33,1.33,0,0,1,1.56-1.09h0a1.33,1.33,0,0,1,1.09,1.56h0A1.35,1.35,0,0,1,324.56,64h0A1,1,0,0,1,324.32,64ZM39.89,62.6a1.36,1.36,0,0,1,0-1.91h0a1.35,1.35,0,0,1,1.91,0h0a1.36,1.36,0,0,1,0,1.91h0a1.35,1.35,0,0,1-1,.38h0A1.35,1.35,0,0,1,39.89,62.6Zm47-.46h0a1.37,1.37,0,0,1-.52-1.84h0a1.36,1.36,0,0,1,1.84-.53h0a1.35,1.35,0,0,1,.52,1.83h0a1.33,1.33,0,0,1-1.18.7h0A1.44,1.44,0,0,1,86.92,62.14Zm-6.34-3.2a1.35,1.35,0,0,1-.67-1.79h0a1.34,1.34,0,0,1,1.78-.68h0a1.35,1.35,0,0,1,.67,1.79h0a1.34,1.34,0,0,1-1.23.79h0A1.35,1.35,0,0,1,80.58,58.94Zm98.76-.35a1.37,1.37,0,0,1-.21-1.9h0a1.35,1.35,0,0,1,1.9-.2h0a1.34,1.34,0,0,1,.21,1.9h0a1.35,1.35,0,0,1-1.05.5h0A1.36,1.36,0,0,1,179.34,58.59Zm-134-.69a1.35,1.35,0,0,1,.45-1.85h0a1.36,1.36,0,0,1,1.86.45h0a1.35,1.35,0,0,1-.45,1.85h0a1.34,1.34,0,0,1-.71.2h0A1.34,1.34,0,0,1,45.37,57.9Zm280.26-1a1.35,1.35,0,0,1-1.1-1.56h0a1.36,1.36,0,0,1,1.57-1.1h0a1.34,1.34,0,0,1,1.09,1.56h0a1.34,1.34,0,0,1-1.33,1.12h0ZM74,56.39a1.36,1.36,0,0,1-.89-1.7h0a1.35,1.35,0,0,1,1.7-.87h0a1.35,1.35,0,0,1,.88,1.69h0a1.35,1.35,0,0,1-1.29.94h0A1.34,1.34,0,0,1,74,56.39ZM51.81,54.65a1.33,1.33,0,0,1,.9-1.68h0a1.35,1.35,0,0,1,1.68.9h0a1.35,1.35,0,0,1-.91,1.68h0a1.07,1.07,0,0,1-.39.07h0A1.34,1.34,0,0,1,51.81,54.65Zm15.37.11a1.36,1.36,0,0,1-1.13-1.54h0a1.34,1.34,0,0,1,1.54-1.12h0a1.36,1.36,0,0,1,1.13,1.55h0a1.35,1.35,0,0,1-1.33,1.14h0Zm-8.34-1.65a1.35,1.35,0,0,1,1.28-1.42h0A1.35,1.35,0,0,1,61.54,53h0a1.34,1.34,0,0,1-1.28,1.41h-.07A1.35,1.35,0,0,1,58.84,53.11Zm125-.17a1.35,1.35,0,0,1-.21-1.9h0a1.34,1.34,0,0,1,1.88-.22h0a1.35,1.35,0,0,1,.23,1.9h0a1.35,1.35,0,0,1-1.06.51h0A1.34,1.34,0,0,1,183.84,52.94Zm143-3.17a1.35,1.35,0,0,1-1.19-1.5h0a1.36,1.36,0,0,1,1.5-1.18h0a1.34,1.34,0,0,1,1.18,1.5h0A1.33,1.33,0,0,1,327,49.78h-.16ZM188.34,47.29a1.34,1.34,0,0,1-.19-1.9h0a1.34,1.34,0,0,1,1.9-.18h0a1.34,1.34,0,0,1,.19,1.89h0a1.35,1.35,0,0,1-1.05.5h0A1.37,1.37,0,0,1,188.34,47.29Zm137.66-6a1.34,1.34,0,0,1,1.33-1.37h0a1.34,1.34,0,0,1,1.37,1.33h0a1.35,1.35,0,0,1-1.33,1.37h0A1.35,1.35,0,0,1,326,41.25Zm-133,.51a1.35,1.35,0,0,1-.1-1.91h0a1.35,1.35,0,0,1,1.9-.1h0a1.35,1.35,0,0,1,.11,1.91h0a1.34,1.34,0,0,1-1,.44h0A1.33,1.33,0,0,1,193,41.76Zm4.93-5.27a1.35,1.35,0,0,1,0-1.91h0a1.35,1.35,0,0,1,1.91,0h0a1.36,1.36,0,0,1,0,1.91h0a1.31,1.31,0,0,1-.94.38h0A1.38,1.38,0,0,1,197.91,36.49Zm127.37-2.15a1.36,1.36,0,0,1,1-1.61h0a1.36,1.36,0,0,1,1.6,1.05h0a1.34,1.34,0,0,1-1,1.6h0l-.28,0h0A1.35,1.35,0,0,1,325.28,34.34ZM203.15,31.52a1.35,1.35,0,0,1,.14-1.91h0a1.35,1.35,0,0,1,1.9.14h0a1.35,1.35,0,0,1-.13,1.9h0a1.34,1.34,0,0,1-.88.33h0A1.35,1.35,0,0,1,203.15,31.52Zm120-3.76h0a1.33,1.33,0,0,1,.68-1.78h0a1.34,1.34,0,0,1,1.78.67h0a1.33,1.33,0,0,1-.68,1.78h0a1.34,1.34,0,0,1-.55.13h0A1.37,1.37,0,0,1,323.14,27.76Zm-114.46-.88a1.34,1.34,0,0,1,.26-1.89h0a1.35,1.35,0,0,1,1.89.24h0a1.36,1.36,0,0,1-.25,1.9h0a1.34,1.34,0,0,1-.83.28h0A1.35,1.35,0,0,1,208.68,26.88Zm5.81-4.3a1.35,1.35,0,0,1,.36-1.88h0a1.35,1.35,0,0,1,1.87.36h0a1.36,1.36,0,0,1-.35,1.88h0a1.38,1.38,0,0,1-.77.23h0A1.35,1.35,0,0,1,214.49,22.58Zm105.19-.85a1.36,1.36,0,0,1,.33-1.88h0a1.35,1.35,0,0,1,1.88.32h0a1.35,1.35,0,0,1-.33,1.88h0a1.29,1.29,0,0,1-.77.25h0A1.38,1.38,0,0,1,319.68,21.73Zm-99.15-3.1a1.36,1.36,0,0,1,.47-1.85h0a1.37,1.37,0,0,1,1.86.47h0a1.36,1.36,0,0,1-.47,1.85h0a1.37,1.37,0,0,1-.7.19h0A1.36,1.36,0,0,1,220.53,18.63Zm94.64-2.22a1.34,1.34,0,0,1,0-1.91h0a1.33,1.33,0,0,1,1.9,0h0a1.33,1.33,0,0,1,0,1.9h0a1.32,1.32,0,0,1-.95.4h0A1.35,1.35,0,0,1,315.17,16.41Zm-88.36-1.36a1.35,1.35,0,0,1,.57-1.82h0a1.34,1.34,0,0,1,1.82.56h0a1.36,1.36,0,0,1-.58,1.83h0a1.35,1.35,0,0,1-.62.15h0A1.35,1.35,0,0,1,226.81,15.05Zm6.47-3.21a1.35,1.35,0,0,1,.68-1.78h0a1.36,1.36,0,0,1,1.78.68h0a1.34,1.34,0,0,1-.68,1.78h0a1.19,1.19,0,0,1-.55.12h0A1.32,1.32,0,0,1,233.28,11.84Zm76.53.06h0A1.34,1.34,0,0,1,309.5,10h0a1.36,1.36,0,0,1,1.89-.31h0a1.34,1.34,0,0,1,.3,1.88h0a1.33,1.33,0,0,1-1.1.57h0A1.28,1.28,0,0,1,309.81,11.9ZM239.93,9a1.34,1.34,0,0,1,.78-1.74h0a1.35,1.35,0,0,1,1.74.79h0a1.35,1.35,0,0,1-.79,1.74h0a1.51,1.51,0,0,1-.48.08h0A1.35,1.35,0,0,1,239.93,9Zm63.89-.75h0a1.34,1.34,0,0,1-.6-1.81h0a1.34,1.34,0,0,1,1.81-.6h0a1.34,1.34,0,0,1,.6,1.81h0a1.35,1.35,0,0,1-1.21.74h0A1.26,1.26,0,0,1,303.82,8.28ZM246.73,6.61a1.36,1.36,0,0,1,.89-1.69h0a1.37,1.37,0,0,1,1.69.89h0a1.35,1.35,0,0,1-.89,1.69h0a1.18,1.18,0,0,1-.41.07h0A1.35,1.35,0,0,1,246.73,6.61Zm50.6-1a1.35,1.35,0,0,1-.86-1.71h0A1.35,1.35,0,0,1,298.18,3h0A1.35,1.35,0,0,1,299,4.75h0a1.35,1.35,0,0,1-1.28.93h0A1.6,1.6,0,0,1,297.33,5.61Zm-43.67-1a1.35,1.35,0,0,1,1-1.63h0a1.34,1.34,0,0,1,1.63,1h0a1.36,1.36,0,0,1-1,1.63h0a1.55,1.55,0,0,1-.31,0h0A1.37,1.37,0,0,1,253.66,4.62ZM260.72,3a1.33,1.33,0,0,1,1.09-1.56h0a1.34,1.34,0,0,1,1.56,1.09h0a1.36,1.36,0,0,1-1.09,1.57h0l-.24,0h0A1.33,1.33,0,0,1,260.72,3Zm29.79.8a1.35,1.35,0,0,1-1.07-1.58h0A1.35,1.35,0,0,1,291,1.19h0a1.35,1.35,0,0,1,1.07,1.58h0a1.35,1.35,0,0,1-1.33,1.1h0ZM267.84,1.93A1.35,1.35,0,0,1,269.05.46h0a1.36,1.36,0,0,1,1.49,1.2h0a1.36,1.36,0,0,1-1.21,1.48h-.14A1.38,1.38,0,0,1,267.84,1.93Zm15.67,1h0a1.34,1.34,0,0,1-1.24-1.45h0A1.33,1.33,0,0,1,283.72.22h0A1.34,1.34,0,0,1,285,1.66h0a1.36,1.36,0,0,1-1.35,1.25h-.1ZM275,1.38A1.37,1.37,0,0,1,276.38,0h0a1.34,1.34,0,0,1,1.36,1.32h0a1.34,1.34,0,0,1-1.32,1.38h0A1.36,1.36,0,0,1,275,1.38Z"/><path class="cls-2" d="M325,355a1.44,1.44,0,0,1-.51-.09,1.37,1.37,0,0,1-.44-.3,1.34,1.34,0,0,1,0-1.91,1.39,1.39,0,0,1,1.9,0A1.35,1.35,0,0,1,325,355Z"/><path class="cls-3" d="M27,370.94H361.68c-1.79-9.44-3.41-18.9-.57-27.81,5.29-16.58,24.41-25.85,29.49-42.5,4.52-14.84-3.54-30.44-12.51-43.09s-19.52-25.49-20.76-41c-1.06-13.2,5-25.91,11.89-37.22s14.91-22.26,18.51-35,1.68-28.19-8.66-36.48c-12.31-9.86-30.17-5.86-45.5-2.15s-34.22,5.54-44.26-6.62c-6.43-7.78-6.84-18.81-11-28C269.89,52.81,246.71,44.69,227,48.76S190.82,66.55,177.89,82s-23.22,33-36.21,48.34c-11,13-27,25.35-43.54,21.36-14.86-3.58-24.85-19.31-40-21.61-10.82-1.64-21.79,4.46-28.28,13.28s-9.13,19.91-10.1,30.82a120.78,120.78,0,0,0,22.07,80.55c8.76,12.17,20.5,26.52,14.45,40.24-7.8,17.7-38.49,16.1-44.51,34.48-2.34,7.17.21,15,3.4,21.82A115.06,115.06,0,0,0,27,370.94Z"/><path class="cls-4" d="M338.77,200.15c-14.82-14.27-11.48-39.35-22.65-56.62a20.13,20.13,0,0,0-7.89-7.57c-3.34-1.58-7.56-1.64-10.53.56-3.56,2.63-4.42,7.77-3.37,12.07s3.6,8.06,5.84,11.89c8,13.67,12.19,29.9,9.7,45.53-2.66,16.67-12.62,31.67-14.14,48.48-1.05,11.61,2.07,23.32,7.3,33.74s12.52,19.67,20.18,28.46c-3.58-9.33-2.48-20.31-.26-30.06s6.58-18.89,11.59-27.54c5.49-9.47,11.89-18.67,14.6-29.28S346.65,207.74,338.77,200.15Z"/><path class="cls-5" d="M338.77,200.15c-14.82-14.27-11.48-39.35-22.65-56.62a20.13,20.13,0,0,0-7.89-7.57c-3.34-1.58-7.56-1.64-10.53.56-3.56,2.63-4.42,7.77-3.37,12.07s3.6,8.06,5.84,11.89c8,13.67,12.19,29.9,9.7,45.53-2.66,16.67-12.62,31.67-14.14,48.48-1.05,11.61,2.07,23.32,7.3,33.74s12.52,19.67,20.18,28.46c-3.58-9.33-2.48-20.31-.26-30.06s6.58-18.89,11.59-27.54c5.49-9.47,11.89-18.67,14.6-29.28S346.65,207.74,338.77,200.15Z"/><path class="cls-5" d="M328.71,182.68c-.73,12.46-6.77,24.73-13.51,35.56-6.9,11.1-14.8,22-19.22,34.16-.09.69-.19,1.39-.25,2.09-1.05,11.61,2.07,23.32,7.3,33.74s12.52,19.67,20.18,28.46c-3.58-9.33-2.48-20.31-.26-30.06s6.58-18.89,11.59-27.54c5.49-9.47,11.89-18.67,14.6-29.28s-2.49-22.07-10.37-29.66C333.76,195.32,330.83,189.26,328.71,182.68Z"/><path class="cls-6" d="M335.86,303.63a299.44,299.44,0,0,1-2.72-72.58c1.14-13.48,3.42-27.44,11.24-38.47,5.76-8.13,14.28-14.26,18.81-23.15,8-15.65,1.71-36,10.41-51.23,3.13-5.49,9.24-10.22,15.37-8.66,6.29,1.6,9.34,8.95,9.41,15.44.18,18.56-15.61,33.64-18.77,51.93s6.65,36.13,8.62,54.57c1.69,15.81-2.51,31.83-9.49,46.11s-16.67,27.06-26.56,39.52C344.4,315.85,337.1,311.41,335.86,303.63Z"/><path class="cls-5" d="M335.86,303.63a299.44,299.44,0,0,1-2.72-72.58c1.14-13.48,3.42-27.44,11.24-38.47,5.76-8.13,14.28-14.26,18.81-23.15,8-15.65,1.71-36,10.41-51.23,3.13-5.49,9.24-10.22,15.37-8.66,6.29,1.6,9.34,8.95,9.41,15.44.18,18.56-15.61,33.64-18.77,51.93s6.65,36.13,8.62,54.57c1.69,15.81-2.51,31.83-9.49,46.11s-16.67,27.06-26.56,39.52C344.4,315.85,337.1,311.41,335.86,303.63Z"/><path class="cls-5" d="M362.44,170.8c-4.67,8.16-12.6,14.07-18.06,21.78-7.82,11-10.1,25-11.24,38.47a299.38,299.38,0,0,0,.91,59.41,187.44,187.44,0,0,0,11.61,24.73,26.78,26.78,0,0,0,6.52,1.92c2.86-3.61,5.71-7.25,8.48-10.94,9.28-16.7,16.63-34.42,18.63-53.29C382.26,224.79,373.16,197.17,362.44,170.8Z"/><path class="cls-7" d="M324.55,315.91c-15.68-6.26-23.45-24.89-22.47-41.75s8.77-32.46,16.19-47.63,14.79-31.09,14.8-48c0-19-9.29-36.84-11.19-55.75a72.83,72.83,0,0,1,8.78-42.43c2.84-5.09,6.8-10.18,12.47-11.48,8.27-1.9,16.33,5.54,18.36,13.78s-.27,16.85-2.42,25.06c-3.8,14.57-7.21,29.57-5.81,44.56,1.62,17.31,9.5,33.32,14.26,50,11.49,40.28,3.9,85.57-20.08,119.92C339.56,320.37,332.08,318.92,324.55,315.91Z"/><path class="cls-8" d="M368.81,222.83a1.8,1.8,0,0,0-2.38.89,69.36,69.36,0,0,1-16,22.1c.41-1.61.79-3.24,1.1-4.88,3.71-19.06,1-38.35-2.21-54.7-.26-1.35-.54-2.71-.81-4.07a109.26,109.26,0,0,0,6.86-12.8,1.8,1.8,0,1,0-3.28-1.48c-1.39,3.09-3,6.13-4.66,9.08-.41-1.92-.82-3.84-1.22-5.73-2.68-12.49-5.45-25.42-6.54-38.3a118.86,118.86,0,0,1,0-20.84c5.47-4.89,10.77-10.06,15.78-15.4a1.8,1.8,0,1,0-2.63-2.46c-4,4.26-8.18,8.41-12.49,12.39a73.29,73.29,0,0,1,8.44-25.42,1.8,1.8,0,1,0-3.13-1.77c-7.37,13-10.68,29.13-9.89,48a80.64,80.64,0,0,0-9.38-9.91,1.8,1.8,0,0,0-2.4,2.69A76.88,76.88,0,0,1,336.13,134l0,0c1.15,12.85,3.88,25.63,6.53,38,1.05,4.89,2.13,9.95,3.1,14.93,2,10.4,3.85,22,3.91,33.92a90.71,90.71,0,0,0-14.12-20.7,1.8,1.8,0,1,0-2.67,2.41,87.25,87.25,0,0,1,16.42,26.23,2.12,2.12,0,0,0,.12.2A92.25,92.25,0,0,1,348,240.25a100.38,100.38,0,0,1-2.52,10,1.82,1.82,0,0,0-.16.55c-1.78,5.84-4,11.59-6.1,17.22-1.18,3.1-2.38,6.3-3.52,9.49A202.94,202.94,0,0,1,320.59,241a1.8,1.8,0,1,0-3.44,1.05,207.12,207.12,0,0,0,16.94,40.09c-3.48,10.55-6.6,23.56-4.62,36.49a1.81,1.81,0,0,0,1.78,1.53l.28,0a1.8,1.8,0,0,0,1.5-2c-2.11-13.78,2-27.88,5.78-38.64,1.2-3.39,2.5-6.83,3.76-10.15,2.14-5.64,4.32-11.39,6.13-17.28a73.09,73.09,0,0,0,21-26.81A1.79,1.79,0,0,0,368.81,222.83Z"/><path class="cls-9" d="M359.21,315c-7.79.43-15.74,1.21-23.6,1.57-7.86-.36-15.8-1.14-23.6-1.57a93.16,93.16,0,0,0,13.49,55.8h20.22A93.16,93.16,0,0,0,359.21,315Z"/><path class="cls-10" d="M359.21,315c-7.79.43-15.74,1.21-23.6,1.57-7.86-.36-15.8-1.14-23.6-1.57a91.22,91.22,0,0,0,.36,17.87l47.1-12.65C359.43,318.47,359.35,316.72,359.21,315Z"/><rect class="cls-11" x="307.84" y="309.56" width="55.54" height="9.6"/><rect class="cls-12" x="85.95" y="72.32" width="230.89" height="298.63" rx="18.02"/><g class="cls-13"><path class="cls-14" d="M316.84,143.11l-224,224A17.91,17.91,0,0,0,104,370.94h30.26l182.6-182.59Z"/><path class="cls-14" d="M86,351.81,316.84,120.92V90.34a18,18,0,0,0-18-18H275l-189,189Z"/></g><path class="cls-14" d="M298.81,76.82H251.2V82a6.07,6.07,0,0,1-6.07,6.07H157.66A6.07,6.07,0,0,1,151.59,82V76.82H104A13.54,13.54,0,0,0,90.45,90.34V352.92A13.54,13.54,0,0,0,104,366.44H298.81a13.54,13.54,0,0,0,13.53-13.52V90.34A13.54,13.54,0,0,0,298.81,76.82Z"/><path class="cls-5" d="M203.65,80.5a2.26,2.26,0,1,1-2.26-2.26A2.26,2.26,0,0,1,203.65,80.5Z"/><path class="cls-5" d="M181,80.5a2.26,2.26,0,1,1-2.26-2.26A2.26,2.26,0,0,1,181,80.5Z"/><path class="cls-5" d="M226.32,80.5a2.26,2.26,0,1,1-2.25-2.26A2.25,2.25,0,0,1,226.32,80.5Z"/><g class="cls-13"><path d="M129.31,152.6H113.64A11.65,11.65,0,0,1,102,141V125.3a11.65,11.65,0,0,1,11.63-11.63h15.67a11.65,11.65,0,0,1,11.63,11.63V141A11.65,11.65,0,0,1,129.31,152.6Zm-15.67-30.83a3.53,3.53,0,0,0-3.53,3.53V141a3.53,3.53,0,0,0,3.53,3.53h15.67a3.54,3.54,0,0,0,3.53-3.53V125.3a3.54,3.54,0,0,0-3.53-3.53Z"/></g><path class="cls-8" d="M290.84,122.73H153.42a3.55,3.55,0,0,1-3.55-3.55h0a3.55,3.55,0,0,1,3.55-3.55H290.84a3.55,3.55,0,0,1,3.55,3.55h0A3.55,3.55,0,0,1,290.84,122.73Z"/><rect class="cls-8" x="149.55" y="129.84" width="144.52" height="7.1" rx="3.55"/><path class="cls-8" d="M220,151.14H153.42a3.55,3.55,0,0,1-3.55-3.55h0a3.55,3.55,0,0,1,3.55-3.55H220a3.55,3.55,0,0,1,3.56,3.55h0A3.55,3.55,0,0,1,220,151.14Z"/><g class="cls-13"><path d="M129.31,210.14H113.64A11.65,11.65,0,0,1,102,198.51V182.84a11.65,11.65,0,0,1,11.63-11.63h15.67a11.65,11.65,0,0,1,11.63,11.63v15.67A11.65,11.65,0,0,1,129.31,210.14Zm-15.67-30.83a3.53,3.53,0,0,0-3.53,3.53v15.67a3.53,3.53,0,0,0,3.53,3.53h15.67a3.54,3.54,0,0,0,3.53-3.53V182.84a3.54,3.54,0,0,0-3.53-3.53Z"/></g><path class="cls-8" d="M290.84,180.27H153.42a3.55,3.55,0,0,1-3.55-3.55h0a3.55,3.55,0,0,1,3.55-3.55H290.84a3.55,3.55,0,0,1,3.55,3.55h0A3.55,3.55,0,0,1,290.84,180.27Z"/><path class="cls-8" d="M290.52,194.48H153.1a3.55,3.55,0,0,1-3.55-3.55h0a3.55,3.55,0,0,1,3.55-3.56H290.52a3.55,3.55,0,0,1,3.55,3.56h0A3.55,3.55,0,0,1,290.52,194.48Z"/><rect class="cls-8" x="149.87" y="201.58" width="73.72" height="7.1" rx="3.55"/><g class="cls-13"><path d="M129.31,267.68H113.64A11.65,11.65,0,0,1,102,256.05V240.38a11.65,11.65,0,0,1,11.63-11.63h15.67a11.65,11.65,0,0,1,11.63,11.63v15.67A11.65,11.65,0,0,1,129.31,267.68Zm-15.67-30.83a3.53,3.53,0,0,0-3.53,3.53v15.67a3.53,3.53,0,0,0,3.53,3.53h15.67a3.54,3.54,0,0,0,3.53-3.53V240.38a3.54,3.54,0,0,0-3.53-3.53Z"/></g><path class="cls-8" d="M290.84,237.81H153.42a3.55,3.55,0,0,1-3.55-3.55h0a3.55,3.55,0,0,1,3.55-3.55H290.84a3.55,3.55,0,0,1,3.55,3.55h0A3.55,3.55,0,0,1,290.84,237.81Z"/><path class="cls-8" d="M290.52,252H153.1a3.55,3.55,0,0,1-3.55-3.55h0a3.55,3.55,0,0,1,3.55-3.56H290.52a3.55,3.55,0,0,1,3.55,3.56h0A3.55,3.55,0,0,1,290.52,252Z"/><path class="cls-8" d="M220,266.22H153.42a3.55,3.55,0,0,1-3.55-3.55h0a3.55,3.55,0,0,1,3.55-3.55H220a3.55,3.55,0,0,1,3.56,3.55h0A3.55,3.55,0,0,1,220,266.22Z"/><g class="cls-13"><path d="M129.31,325.22H113.64A11.65,11.65,0,0,1,102,313.59V297.92a11.65,11.65,0,0,1,11.63-11.63h15.67a11.65,11.65,0,0,1,11.63,11.63v15.67A11.65,11.65,0,0,1,129.31,325.22Zm-15.67-30.83a3.53,3.53,0,0,0-3.53,3.53v15.67a3.54,3.54,0,0,0,3.53,3.53h15.67a3.54,3.54,0,0,0,3.53-3.53V297.92a3.54,3.54,0,0,0-3.53-3.53Z"/></g><path class="cls-8" d="M290.84,295.35H153.42a3.55,3.55,0,0,1-3.55-3.55h0a3.55,3.55,0,0,1,3.55-3.55H290.84a3.55,3.55,0,0,1,3.55,3.55h0A3.55,3.55,0,0,1,290.84,295.35Z"/><rect class="cls-8" x="149.55" y="302.45" width="144.52" height="7.1" rx="3.55"/><rect class="cls-8" x="149.87" y="316.66" width="73.72" height="7.1" rx="3.55"/><circle class="cls-15" cx="105.71" cy="84.95" r="2.19"/><circle class="cls-15" cx="113.59" cy="84.95" r="2.19"/><circle class="cls-15" cx="121.47" cy="84.95" r="2.19"/><circle class="cls-15" cx="129.36" cy="84.95" r="2.19"/><circle class="cls-15" cx="137.24" cy="84.95" r="2.19"/><rect class="cls-15" x="258.71" y="81.22" width="12.81" height="7.08"/><rect class="cls-15" x="271.52" y="82.85" width="1.79" height="3.82" transform="translate(544.82 169.51) rotate(180)"/><text class="cls-16" transform="translate(280.79 86.61) scale(1.04 1)">100%</text><path class="cls-17" d="M139.83,85c-6.12,10.47-12.25,22-17.38,33a70.12,70.12,0,0,1-9.87-8.19l-9.46,5.8a106.47,106.47,0,0,0,22.89,12C130.77,113.83,135.07,98.76,139.83,85Z"/><polygon class="cls-18" points="29.32 357.36 33.43 347.55 41.25 352.1 34.75 360.53 29.32 357.36"/><polygon class="cls-18" points="76.37 363.93 74.44 351.59 87.12 351.59 85.19 363.93 76.37 363.93"/><path class="cls-18" d="M31,242.93c1.21,3.4,2.43,7.16,1.12,10.52,1,1.8-.3,4.61-1.93,5.82a4.42,4.42,0,0,1-5.57-.39,6.87,6.87,0,0,1-1.71-4.29,17.2,17.2,0,0,1,3.3-11.93c0-1.06.52-2.25,1.58-2.31S30.67,241.92,31,242.93Z"/><path class="cls-17" d="M65.39,157.07a8,8,0,0,1-.23-7.86,18.59,18.59,0,0,1,5.42-6.13,50.84,50.84,0,0,0,6.29-5.32,18,18,0,0,0,4.49-13.86c-.27-2.46-1.17-5-3.14-6.52-3.09-2.34-7.75-1.23-10.62,1.37s-4.41,6.32-6,9.84-3.49,7.16-6.75,9.26c-2,1.3-4.38,1.91-6.39,3.19a11.42,11.42,0,0,0-4.35,13.3,6.61,6.61,0,0,0-1.22,7.1,10.93,10.93,0,0,0,5.3,5.22,16.86,16.86,0,0,0,14,.46c-.89-2.24-.42-5.56,1.42-7.12C64.46,159.25,65.47,158.21,65.39,157.07Z"/><path class="cls-18" d="M109.66,127.73a4.92,4.92,0,0,1,1.22-6.4c-.48-2.33,1.21-5.35,3.57-5.67a3.36,3.36,0,0,1,3.67,2,4.71,4.71,0,0,1-.16,2.62,22,22,0,0,1-5.51,9.52A9.47,9.47,0,0,1,109.66,127.73Z"/><path class="cls-19" d="M32.09,246.36A75.1,75.1,0,0,1,54.2,202.49c3.12-3,6.51-5.77,9.35-9.05s5.13-7.22,5.53-11.54a9.77,9.77,0,0,0-1.3-6.25,5.88,5.88,0,0,0-5.5-2.76c-6.65.94-12.25,5.87-16.57,11a88.55,88.55,0,0,0-20.59,58.3A14.47,14.47,0,0,0,32.09,246.36Z"/><path class="cls-20" d="M74.38,274a131.83,131.83,0,0,1-32.67,77A19.37,19.37,0,0,1,34,345.88c3.21-17.49,15.89-32.7,17.29-50.42.74-9.44-1.73-18.8-2.92-28.19s-3.94-23.51,1.59-31.2c8.25,4.32,18.31,14.62,23.1,22.6a25.22,25.22,0,0,1,3.48,8.52C77.07,270.23,74.62,271,74.38,274Z"/><path class="cls-21" d="M74.38,274a131.83,131.83,0,0,1-32.67,77A19.37,19.37,0,0,1,34,345.88c3.21-17.49,15.89-32.7,17.29-50.42.74-9.44-1.73-18.8-2.92-28.19s-3.94-23.51,1.59-31.2c8.25,4.32,18.31,14.62,23.1,22.6a25.22,25.22,0,0,1,3.48,8.52C77.07,270.23,74.62,271,74.38,274Z"/><path class="cls-5" d="M76.54,267.19a25.22,25.22,0,0,0-3.48-8.52c-4.69-7.8-14.4-17.81-22.54-22.29l-1.12.54c-4.43,7.28-2.51,19.38-1.3,28.33.26.47.53.93.8,1.39,4.54,7.79,10.36,14.81,14.42,22.85a40,40,0,0,1,4.56,16.3A130.12,130.12,0,0,0,74.38,274C74.62,271,77.07,270.23,76.54,267.19Z"/><path class="cls-20" d="M79.1,236a354.73,354.73,0,0,1,8.61,118.57h-13C71.13,340,67.86,324,68,309.06c.08-9.25,1.6-18.69-.75-27.64-2.09-8-7.06-14.8-11.19-21.93S48.5,244.18,50,236.07A61.74,61.74,0,0,1,79.1,236Z"/><path class="cls-5" d="M66.64,234.33c4.28,2,9.1,3.94,13.56,6.34-.36-1.57-.71-3.14-1.1-4.7a61.74,61.74,0,0,0-29.14.1c-1.46,8.11,2,16.29,6.11,23.42s9.1,14,11.19,21.93c2.35,8.95.83,18.39.75,27.64-.15,14.94,3.12,31,6.72,45.48h6A263.72,263.72,0,0,0,66.64,234.33Z"/><path class="cls-5" d="M80.71,243c-.17-.77-.33-1.54-.51-2.3s-.31-1.34-.47-2c-3-.92-5.39-2.34-9-3.23a45.88,45.88,0,0,0-6.59-1.15,63.8,63.8,0,0,0-8.6.71,19.15,19.15,0,0,0-7.1,4c-.12.29-.24.57-.35.87l0,.07c-.17.49-.32,1-.46,1.52l0,.12c-.14.52-.25,1.05-.36,1.6v.08a34.76,34.76,0,0,0-.51,5.3v.11c0,.59,0,1.17,0,1.76v.17c0,.59,0,1.18,0,1.77v.11c.06,1.23.15,2.46.27,3.68v.1c.05.59.12,1.17.18,1.75a1.49,1.49,0,0,1,0,.21c.07.56.13,1.12.2,1.66l0,.27.21,1.59c0,.1,0,.2,0,.3,0,.33.09.64.13,1A52.43,52.43,0,0,0,80.71,243Z"/><path class="cls-11" d="M44.5,251c11.07,3.22,27.18-5.9,38-9.85-.86-11.45-3.45-23.44-4.31-34.9-.94-12.39-2.19-25.63-10-35.3C65,167,57.77,169.28,54,172.59s-5.9,8.14-7.46,12.94C40.4,204.31,39.21,232,44.5,251Z"/><path class="cls-5" d="M78.2,206.25c-.83-10.91-1.9-22.48-7.49-31.69A26.58,26.58,0,0,0,64,177.37c-4.29,2.46-7.86,6.39-12.24,8.67a95.93,95.93,0,0,0,26.5,20.75C78.23,206.61,78.21,206.43,78.2,206.25Z"/><path class="cls-18" d="M59,156.53A98.44,98.44,0,0,0,57.55,172c2.53.69,5.25,1.64,7.82,1.13a84.65,84.65,0,0,0,.74-16A15.38,15.38,0,0,0,59,156.53Z"/><path class="cls-5" d="M57.92,165.18a29.74,29.74,0,0,0,7.91,4,86.79,86.79,0,0,0,.32-11.16,7.17,7.17,0,0,0-1-1.21l-.08-.06a16,16,0,0,0-6-.27C58.53,159.4,58.17,162.28,57.92,165.18Z"/><path class="cls-18" d="M59.27,146.51A27.1,27.1,0,0,1,71.74,161a10.62,10.62,0,0,1-6.21,5,12.74,12.74,0,0,1-11.37-1.85,10.49,10.49,0,0,1-3.83-10.63C51.34,149.71,55.76,144.61,59.27,146.51Z"/><path class="cls-11" d="M114.24,128.15c-3.1,11.86-6.87,23.63-12.74,34.38s-14,20.51-24.41,26.94a27.9,27.9,0,0,1-10.56,4.22A14,14,0,0,1,55.73,191c-2.95-2.43-6.46-7.9-4.26-11,2.77-3.9,7.68-5.48,12.12-7.25a80.17,80.17,0,0,0,45.24-46.63Z"/><path class="cls-17" d="M65.18,148.43A2,2,0,0,1,64.7,150a4.76,4.76,0,0,1-1.29,1A18,18,0,0,1,55,153.54a6.33,6.33,0,0,1,.8,5.15c1,.76,1.66,1.74,2.61,2.5a19.21,19.21,0,0,0-3-1.17,1.64,1.64,0,0,0-1.65,0,1.14,1.14,0,0,0-.26,1.2,2.57,2.57,0,0,0,.76,1,7.5,7.5,0,0,0,3.36,1.78,8.32,8.32,0,0,1,.07,3.75c-3.44-.84-7.67-2.46-9.48-5.52-1.22-2.06-1.24-4.6-1-7,.28-3.43,1-7,3.07-9.7s5.82-4.45,9-3.27C61.8,143.24,64.73,145.76,65.18,148.43Z"/><rect class="cls-20" x="72.23" y="351.59" width="17.11" height="5.89" rx="2.22"/><rect class="cls-22" x="72.23" y="351.59" width="17.11" height="5.89" rx="2.22"/><rect class="cls-20" x="29.51" y="345.7" width="17.11" height="5.89" rx="2.22" transform="translate(182.98 29.26) rotate(30.64)"/><rect class="cls-22" x="29.51" y="345.7" width="17.11" height="5.89" rx="2.22" transform="translate(182.98 29.26) rotate(30.64)"/><polygon class="cls-20" points="76.37 363.93 72.22 370.94 98.39 370.94 85.19 363.93 76.37 363.93"/><polygon class="cls-20" points="37.94 365.42 34.75 360.53 29.32 357.36 22.7 360.44 35.3 367.78 36.51 368.66 44.26 369.44 37.94 365.42"/><path class="cls-5" d="M243.33,360.53H159.46a2.77,2.77,0,0,1-2.77-2.77h0a2.76,2.76,0,0,1,2.77-2.76h83.87a2.76,2.76,0,0,1,2.77,2.76h0A2.77,2.77,0,0,1,243.33,360.53Z"/><g class="cls-23"><circle cx="381.16" cy="76" r="3.68"/><path d="M159.53,31.72a3.16,3.16,0,1,1-3.16-3.16A3.17,3.17,0,0,1,159.53,31.72Z"/><path d="M62.86,18.85a2,2,0,1,1-2-2.05A2.05,2.05,0,0,1,62.86,18.85Z"/><path d="M60.59,90.53a2.24,2.24,0,1,1-2.23-2.24A2.23,2.23,0,0,1,60.59,90.53Z"/><path d="M8.75,137.51a4.38,4.38,0,1,1-4.38-4.38A4.38,4.38,0,0,1,8.75,137.51Z"/><path d="M272.41,31.57a2.29,2.29,0,1,1-2.28-2.29A2.29,2.29,0,0,1,272.41,31.57Z"/><path d="M345.64,33.15h0a5.78,5.78,0,0,0,3.74,3.73h0a5.77,5.77,0,0,0-3.74,3.74h0a5.78,5.78,0,0,0-3.73-3.74h0a5.78,5.78,0,0,0,3.73-3.73Z"/><path d="M396.15,335.53h0a5.78,5.78,0,0,0,3.74,3.73h0a5.81,5.81,0,0,0-3.74,3.74h0a5.82,5.82,0,0,0-3.73-3.74h0a5.78,5.78,0,0,0,3.73-3.73Z"/><path d="M407.74,163.4h0a5.79,5.79,0,0,0,3.74,3.74h0a5.78,5.78,0,0,0-3.74,3.73h0a5.78,5.78,0,0,0-3.73-3.73h0a5.8,5.8,0,0,0,3.73-3.74Z"/><path d="M302,53.19h0a5.78,5.78,0,0,0,3.73,3.73h0A5.78,5.78,0,0,0,302,60.65h0a5.78,5.78,0,0,0-3.73-3.73h0A5.78,5.78,0,0,0,302,53.19Z"/><path d="M203.65.42h0a5.78,5.78,0,0,0,3.73,3.74h0a5.78,5.78,0,0,0-3.73,3.73h0a5.78,5.78,0,0,0-3.73-3.73h0A5.78,5.78,0,0,0,203.65.42Z"/><path d="M8.75,38.37h0a5.78,5.78,0,0,0,3.73,3.73h0a5.78,5.78,0,0,0-3.73,3.73h0A5.78,5.78,0,0,0,5,42.1H5a5.78,5.78,0,0,0,3.74-3.73Z"/><path d="M113.35,28.25h0A5.78,5.78,0,0,0,117.08,32h0a5.78,5.78,0,0,0-3.73,3.73h0A5.78,5.78,0,0,0,109.62,32h0a5.78,5.78,0,0,0,3.73-3.73Z"/><path d="M3.73,214.49h0a5.78,5.78,0,0,0,3.74,3.73h0A5.78,5.78,0,0,0,3.73,222h0A5.78,5.78,0,0,0,0,218.22H0a5.78,5.78,0,0,0,3.73-3.73Z"/></g></g></g></g></svg>